<svg width="384" height="382" viewBox="0 0 384 382" fill="none" xmlns="http://www.w3.org/2000/svg">
<path d="M10.7318 164.667C9.17622 163 8.39844 161 8.39844 158.667C8.39844 156.333 9.17622 154.389 10.7318 152.833C12.3984 151.167 14.3984 150.333 16.7318 150.333C19.0651 150.333 21.0095 151.167 22.5651 152.833C24.2318 154.389 25.0651 156.333 25.0651 158.667C25.0651 161 24.2318 163 22.5651 164.667C21.0095 166.222 19.0651 167 16.7318 167C14.3984 167 12.3984 166.222 10.7318 164.667ZM10.7318 148C9.17622 146.333 8.39844 144.333 8.39844 142C8.39844 139.667 9.17622 137.722 10.7318 136.167C12.3984 134.5 14.3984 133.667 16.7318 133.667C19.0651 133.667 21.0095 134.5 22.5651 136.167C24.2318 137.722 25.0651 139.667 25.0651 142C25.0651 144.333 24.2318 146.333 22.5651 148C21.0095 149.556 19.0651 150.333 16.7318 150.333C14.3984 150.333 12.3984 149.556 10.7318 148ZM10.7318 131.333C9.17622 129.667 8.39844 127.667 8.39844 125.333C8.39844 123 9.17622 121.056 10.7318 119.5C12.3984 117.833 14.3984 117 16.7318 117C19.0651 117 21.0095 117.833 22.5651 119.5C24.2318 121.056 25.0651 123 25.0651 125.333C25.0651 127.667 24.2318 129.667 22.5651 131.333C21.0095 132.889 19.0651 133.667 16.7318 133.667C14.3984 133.667 12.3984 132.889 10.7318 131.333ZM10.7318 114.667C9.17622 113 8.39844 111 8.39844 108.667C8.39844 106.333 9.17622 104.389 10.7318 102.833C12.3984 101.167 14.3984 100.333 16.7318 100.333C19.0651 100.333 21.0095 101.167 22.5651 102.833C24.2318 104.389 25.0651 106.333 25.0651 108.667C25.0651 111 24.2318 113 22.5651 114.667C21.0095 116.222 19.0651 117 16.7318 117C14.3984 117 12.3984 116.222 10.7318 114.667ZM10.7318 98C9.17622 96.3333 8.39844 94.3333 8.39844 92C8.39844 89.6667 9.17622 87.7222 10.7318 86.1667C12.3984 84.5 14.3984 83.6667 16.7318 83.6667C19.0651 83.6667 21.0095 84.5 22.5651 86.1667C24.2318 87.7222 25.0651 89.6667 25.0651 92C25.0651 94.3333 24.2318 96.3333 22.5651 98C21.0095 99.5556 19.0651 100.333 16.7318 100.333C14.3984 100.333 12.3984 99.5556 10.7318 98ZM10.7318 81.3333C9.17622 79.6667 8.39844 77.6667 8.39844 75.3333C8.39844 73 9.17622 71.0556 10.7318 69.5C12.3984 67.8333 14.3984 67 16.7318 67C19.0651 67 21.0095 67.8333 22.5651 69.5C24.2318 71.0556 25.0651 73 25.0651 75.3333C25.0651 77.6667 24.2318 79.6667 22.5651 81.3333C21.0095 82.8889 19.0651 83.6667 16.7318 83.6667C14.3984 83.6667 12.3984 82.8889 10.7318 81.3333ZM10.7318 64.6667C9.17622 63 8.39844 61 8.39844 58.6667C8.39844 56.3333 9.17622 54.3889 10.7318 52.8333C12.3984 51.1667 14.3984 50.3333 16.7318 50.3333C19.0651 50.3333 21.0095 51.1667 22.5651 52.8333C24.2318 54.3889 25.0651 56.3333 25.0651 58.6667C25.0651 61 24.2318 63 22.5651 64.6667C21.0095 66.2222 19.0651 67 16.7318 67C14.3984 67 12.3984 66.2222 10.7318 64.6667ZM10.7318 48C9.17622 46.3333 8.39844 44.3333 8.39844 42C8.39844 39.6667 9.17622 37.7222 10.7318 36.1667C12.3984 34.5 14.3984 33.6667 16.7318 33.6667C19.0651 33.6667 21.0095 34.5 22.5651 36.1667C24.2318 37.7222 25.0651 39.6667 25.0651 42C25.0651 44.3333 24.2318 46.3333 22.5651 48C21.0095 49.5555 19.0651 50.3333 16.7318 50.3333C14.3984 50.3333 12.3984 49.5555 10.7318 48ZM10.7318 31.3333C9.17622 29.6667 8.39844 27.6667 8.39844 25.3333C8.39844 23 9.17622 21.0556 10.7318 19.5C12.3984 17.8333 14.3984 17 16.7318 17C19.0651 17 21.0095 17.8333 22.5651 19.5C24.2318 21.0556 25.0651 23 25.0651 25.3333C25.0651 27.6667 24.2318 29.6667 22.5651 31.3333C21.0095 32.8889 19.0651 33.6667 16.7318 33.6667C14.3984 33.6667 12.3984 32.8889 10.7318 31.3333ZM10.7318 14.6667C9.17622 13 8.39844 11 8.39844 8.66666C8.39844 6.33333 9.17622 4.38889 10.7318 2.83333C12.3984 1.16666 14.3984 0.333325 16.7318 0.333325C19.0651 0.333325 21.0095 1.16666 22.5651 2.83333C24.2318 4.38889 25.0651 6.33333 25.0651 8.66666C25.0651 11 24.2318 13 22.5651 14.6667C21.0095 16.2222 19.0651 17 16.7318 17C14.3984 17 12.3984 16.2222 10.7318 14.6667ZM27.3984 14.6667C25.8429 13 25.0651 11 25.0651 8.66666C25.0651 6.33333 25.8429 4.38889 27.3984 2.83333C29.0651 1.16666 31.0651 0.333325 33.3984 0.333325C35.7318 0.333325 37.6762 1.16666 39.2318 2.83333C40.8984 4.38889 41.7318 6.33333 41.7318 8.66666C41.7318 11 40.8984 13 39.2318 14.6667C37.6762 16.2222 35.7318 17 33.3984 17C31.0651 17 29.0651 16.2222 27.3984 14.6667ZM27.3984 48C25.8429 46.3333 25.0651 44.3333 25.0651 42C25.0651 39.6667 25.8429 37.7222 27.3984 36.1667C29.0651 34.5 31.0651 33.6667 33.3984 33.6667C35.7318 33.6667 37.6762 34.5 39.2318 36.1667C40.8984 37.7222 41.7318 39.6667 41.7318 42C41.7318 44.3333 40.8984 46.3333 39.2318 48C37.6762 49.5555 35.7318 50.3333 33.3984 50.3333C31.0651 50.3333 29.0651 49.5555 27.3984 48ZM27.3984 64.6667C25.8429 63 25.0651 61 25.0651 58.6667C25.0651 56.3333 25.8429 54.3889 27.3984 52.8333C29.0651 51.1667 31.0651 50.3333 33.3984 50.3333C35.7318 50.3333 37.6762 51.1667 39.2318 52.8333C40.8984 54.3889 41.7318 56.3333 41.7318 58.6667C41.7318 61 40.8984 63 39.2318 64.6667C37.6762 66.2222 35.7318 67 33.3984 67C31.0651 67 29.0651 66.2222 27.3984 64.6667ZM27.3984 31.3333C25.8429 29.6667 25.0651 27.6667 25.0651 25.3333C25.0651 23 25.8429 21.0556 27.3984 19.5C29.0651 17.8333 31.0651 17 33.3984 17C35.7318 17 37.6762 17.8333 39.2318 19.5C40.8984 21.0556 41.7318 23 41.7318 25.3333C41.7318 27.6667 40.8984 29.6667 39.2318 31.3333C37.6762 32.8889 35.7318 33.6667 33.3984 33.6667C31.0651 33.6667 29.0651 32.8889 27.3984 31.3333ZM27.3984 81.3333C25.8429 79.6667 25.0651 77.6667 25.0651 75.3333C25.0651 73 25.8429 71.0556 27.3984 69.5C29.0651 67.8333 31.0651 67 33.3984 67C35.7318 67 37.6762 67.8333 39.2318 69.5C40.8984 71.0556 41.7318 73 41.7318 75.3333C41.7318 77.6667 40.8984 79.6667 39.2318 81.3333C37.6762 82.8889 35.7318 83.6667 33.3984 83.6667C31.0651 83.6667 29.0651 82.8889 27.3984 81.3333ZM27.3984 98C25.8429 96.3333 25.0651 94.3333 25.0651 92C25.0651 89.6667 25.8429 87.7222 27.3984 86.1667C29.0651 84.5 31.0651 83.6667 33.3984 83.6667C35.7318 83.6667 37.6762 84.5 39.2318 86.1667C40.8984 87.7222 41.7318 89.6667 41.7318 92C41.7318 94.3333 40.8984 96.3333 39.2318 98C37.6762 99.5556 35.7318 100.333 33.3984 100.333C31.0651 100.333 29.0651 99.5556 27.3984 98ZM27.3984 114.667C25.8429 113 25.0651 111 25.0651 108.667C25.0651 106.333 25.8429 104.389 27.3984 102.833C29.0651 101.167 31.0651 100.333 33.3984 100.333C35.7318 100.333 37.6762 101.167 39.2318 102.833C40.8984 104.389 41.7318 106.333 41.7318 108.667C41.7318 111 40.8984 113 39.2318 114.667C37.6762 116.222 35.7318 117 33.3984 117C31.0651 117 29.0651 116.222 27.3984 114.667ZM27.3984 131.333C25.8429 129.667 25.0651 127.667 25.0651 125.333C25.0651 123 25.8429 121.056 27.3984 119.5C29.0651 117.833 31.0651 117 33.3984 117C35.7318 117 37.6762 117.833 39.2318 119.5C40.8984 121.056 41.7318 123 41.7318 125.333C41.7318 127.667 40.8984 129.667 39.2318 131.333C37.6762 132.889 35.7318 133.667 33.3984 133.667C31.0651 133.667 29.0651 132.889 27.3984 131.333ZM27.3984 148C25.8429 146.333 25.0651 144.333 25.0651 142C25.0651 139.667 25.8429 137.722 27.3984 136.167C29.0651 134.5 31.0651 133.667 33.3984 133.667C35.7318 133.667 37.6762 134.5 39.2318 136.167C40.8984 137.722 41.7318 139.667 41.7318 142C41.7318 144.333 40.8984 146.333 39.2318 148C37.6762 149.556 35.7318 150.333 33.3984 150.333C31.0651 150.333 29.0651 149.556 27.3984 148ZM27.3984 164.667C25.8429 163 25.0651 161 25.0651 158.667C25.0651 156.333 25.8429 154.389 27.3984 152.833C29.0651 151.167 31.0651 150.333 33.3984 150.333C35.7318 150.333 37.6762 151.167 39.2318 152.833C40.8984 154.389 41.7318 156.333 41.7318 158.667C41.7318 161 40.8984 163 39.2318 164.667C37.6762 166.222 35.7318 167 33.3984 167C31.0651 167 29.0651 166.222 27.3984 164.667ZM44.0651 48C42.5095 46.3333 41.7318 44.3333 41.7318 42C41.7318 39.6667 42.5095 37.7222 44.0651 36.1667C45.7318 34.5 47.7318 33.6667 50.0651 33.6667C52.3984 33.6667 54.3429 34.5 55.8984 36.1667C57.5651 37.7222 58.3984 39.6667 58.3984 42C58.3984 44.3333 57.5651 46.3333 55.8984 48C54.3429 49.5555 52.3984 50.3333 50.0651 50.3333C47.7318 50.3333 45.7318 49.5555 44.0651 48ZM44.0651 64.6667C42.5095 63 41.7318 61 41.7318 58.6667C41.7318 56.3333 42.5095 54.3889 44.0651 52.8333C45.7318 51.1667 47.7318 50.3333 50.0651 50.3333C52.3984 50.3333 54.3429 51.1667 55.8984 52.8333C57.5651 54.3889 58.3984 56.3333 58.3984 58.6667C58.3984 61 57.5651 63 55.8984 64.6667C54.3429 66.2222 52.3984 67 50.0651 67C47.7318 67 45.7318 66.2222 44.0651 64.6667ZM60.7318 64.6667C59.1762 63 58.3984 61 58.3984 58.6667C58.3984 56.3333 59.1762 54.3889 60.7318 52.8333C62.3984 51.1667 64.3984 50.3333 66.7318 50.3333C69.0651 50.3333 71.0096 51.1667 72.5651 52.8333C74.2318 54.3889 75.0651 56.3333 75.0651 58.6667C75.0651 61 74.2318 63 72.5651 64.6667C71.0096 66.2222 69.0651 67 66.7318 67C64.3984 67 62.3984 66.2222 60.7318 64.6667ZM60.7318 48C59.1762 46.3333 58.3984 44.3333 58.3984 42C58.3984 39.6667 59.1762 37.7222 60.7318 36.1667C62.3984 34.5 64.3984 33.6667 66.7318 33.6667C69.0651 33.6667 71.0096 34.5 72.5651 36.1667C74.2318 37.7222 75.0651 39.6667 75.0651 42C75.0651 44.3333 74.2318 46.3333 72.5651 48C71.0096 49.5555 69.0651 50.3333 66.7318 50.3333C64.3984 50.3333 62.3984 49.5555 60.7318 48ZM77.3984 48C75.8429 46.3333 75.0651 44.3333 75.0651 42C75.0651 39.6667 75.8429 37.7222 77.3984 36.1667C79.0651 34.5 81.0651 33.6667 83.3984 33.6667C85.7318 33.6667 87.6762 34.5 89.2318 36.1667C90.8984 37.7222 91.7318 39.6667 91.7318 42C91.7318 44.3333 90.8984 46.3333 89.2318 48C87.6762 49.5555 85.7318 50.3333 83.3984 50.3333C81.0651 50.3333 79.0651 49.5555 77.3984 48ZM77.3984 64.6667C75.8429 63 75.0651 61 75.0651 58.6667C75.0651 56.3333 75.8429 54.3889 77.3984 52.8333C79.0651 51.1667 81.0651 50.3333 83.3984 50.3333C85.7318 50.3333 87.6762 51.1667 89.2318 52.8333C90.8984 54.3889 91.7318 56.3333 91.7318 58.6667C91.7318 61 90.8984 63 89.2318 64.6667C87.6762 66.2222 85.7318 67 83.3984 67C81.0651 67 79.0651 66.2222 77.3984 64.6667ZM94.0651 64.6667C92.5096 63 91.7318 61 91.7318 58.6667C91.7318 56.3333 92.5096 54.3889 94.0651 52.8333C95.7318 51.1667 97.7318 50.3333 100.065 50.3333C102.398 50.3333 104.343 51.1667 105.898 52.8333C107.565 54.3889 108.398 56.3333 108.398 58.6667C108.398 61 107.565 63 105.898 64.6667C104.343 66.2222 102.398 67 100.065 67C97.7318 67 95.7318 66.2222 94.0651 64.6667ZM94.0651 81.3333C92.5096 79.6667 91.7318 77.6667 91.7318 75.3333C91.7318 73 92.5096 71.0556 94.0651 69.5C95.7318 67.8333 97.7318 67 100.065 67C102.398 67 104.343 67.8333 105.898 69.5C107.565 71.0556 108.398 73 108.398 75.3333C108.398 77.6667 107.565 79.6667 105.898 81.3333C104.343 82.8889 102.398 83.6667 100.065 83.6667C97.7318 83.6667 95.7318 82.8889 94.0651 81.3333ZM77.3984 81.3333C75.8429 79.6667 75.0651 77.6667 75.0651 75.3333C75.0651 73 75.8429 71.0556 77.3984 69.5C79.0651 67.8333 81.0651 67 83.3984 67C85.7318 67 87.6762 67.8333 89.2318 69.5C90.8984 71.0556 91.7318 73 91.7318 75.3333C91.7318 77.6667 90.8984 79.6667 89.2318 81.3333C87.6762 82.8889 85.7318 83.6667 83.3984 83.6667C81.0651 83.6667 79.0651 82.8889 77.3984 81.3333ZM77.3984 98C75.8429 96.3333 75.0651 94.3333 75.0651 92C75.0651 89.6667 75.8429 87.7222 77.3984 86.1667C79.0651 84.5 81.0651 83.6667 83.3984 83.6667C85.7318 83.6667 87.6762 84.5 89.2318 86.1667C90.8984 87.7222 91.7318 89.6667 91.7318 92C91.7318 94.3333 90.8984 96.3333 89.2318 98C87.6762 99.5556 85.7318 100.333 83.3984 100.333C81.0651 100.333 79.0651 99.5556 77.3984 98ZM94.0651 98C92.5096 96.3333 91.7318 94.3333 91.7318 92C91.7318 89.6667 92.5096 87.7222 94.0651 86.1667C95.7318 84.5 97.7318 83.6667 100.065 83.6667C102.398 83.6667 104.343 84.5 105.898 86.1667C107.565 87.7222 108.398 89.6667 108.398 92C108.398 94.3333 107.565 96.3333 105.898 98C104.343 99.5556 102.398 100.333 100.065 100.333C97.7318 100.333 95.7318 99.5556 94.0651 98ZM94.0651 114.667C92.5096 113 91.7318 111 91.7318 108.667C91.7318 106.333 92.5096 104.389 94.0651 102.833C95.7318 101.167 97.7318 100.333 100.065 100.333C102.398 100.333 104.343 101.167 105.898 102.833C107.565 104.389 108.398 106.333 108.398 108.667C108.398 111 107.565 113 105.898 114.667C104.343 116.222 102.398 117 100.065 117C97.7318 117 95.7318 116.222 94.0651 114.667ZM77.3984 114.667C75.8429 113 75.0651 111 75.0651 108.667C75.0651 106.333 75.8429 104.389 77.3984 102.833C79.0651 101.167 81.0651 100.333 83.3984 100.333C85.7318 100.333 87.6762 101.167 89.2318 102.833C90.8984 104.389 91.7318 106.333 91.7318 108.667C91.7318 111 90.8984 113 89.2318 114.667C87.6762 116.222 85.7318 117 83.3984 117C81.0651 117 79.0651 116.222 77.3984 114.667ZM77.3984 131.333C75.8429 129.667 75.0651 127.667 75.0651 125.333C75.0651 123 75.8429 121.056 77.3984 119.5C79.0651 117.833 81.0651 117 83.3984 117C85.7318 117 87.6762 117.833 89.2318 119.5C90.8984 121.056 91.7318 123 91.7318 125.333C91.7318 127.667 90.8984 129.667 89.2318 131.333C87.6762 132.889 85.7318 133.667 83.3984 133.667C81.0651 133.667 79.0651 132.889 77.3984 131.333ZM94.0651 131.333C92.5096 129.667 91.7318 127.667 91.7318 125.333C91.7318 123 92.5096 121.056 94.0651 119.5C95.7318 117.833 97.7318 117 100.065 117C102.398 117 104.343 117.833 105.898 119.5C107.565 121.056 108.398 123 108.398 125.333C108.398 127.667 107.565 129.667 105.898 131.333C104.343 132.889 102.398 133.667 100.065 133.667C97.7318 133.667 95.7318 132.889 94.0651 131.333ZM94.0651 148C92.5096 146.333 91.7318 144.333 91.7318 142C91.7318 139.667 92.5096 137.722 94.0651 136.167C95.7318 134.5 97.7318 133.667 100.065 133.667C102.398 133.667 104.343 134.5 105.898 136.167C107.565 137.722 108.398 139.667 108.398 142C108.398 144.333 107.565 146.333 105.898 148C104.343 149.556 102.398 150.333 100.065 150.333C97.7318 150.333 95.7318 149.556 94.0651 148ZM77.3984 148C75.8429 146.333 75.0651 144.333 75.0651 142C75.0651 139.667 75.8429 137.722 77.3984 136.167C79.0651 134.5 81.0651 133.667 83.3984 133.667C85.7318 133.667 87.6762 134.5 89.2318 136.167C90.8984 137.722 91.7318 139.667 91.7318 142C91.7318 144.333 90.8984 146.333 89.2318 148C87.6762 149.556 85.7318 150.333 83.3984 150.333C81.0651 150.333 79.0651 149.556 77.3984 148ZM77.3984 164.667C75.8429 163 75.0651 161 75.0651 158.667C75.0651 156.333 75.8429 154.389 77.3984 152.833C79.0651 151.167 81.0651 150.333 83.3984 150.333C85.7318 150.333 87.6762 151.167 89.2318 152.833C90.8984 154.389 91.7318 156.333 91.7318 158.667C91.7318 161 90.8984 163 89.2318 164.667C87.6762 166.222 85.7318 167 83.3984 167C81.0651 167 79.0651 166.222 77.3984 164.667ZM94.0651 164.667C92.5096 163 91.7318 161 91.7318 158.667C91.7318 156.333 92.5096 154.389 94.0651 152.833C95.7318 151.167 97.7318 150.333 100.065 150.333C102.398 150.333 104.343 151.167 105.898 152.833C107.565 154.389 108.398 156.333 108.398 158.667C108.398 161 107.565 163 105.898 164.667C104.343 166.222 102.398 167 100.065 167C97.7318 167 95.7318 166.222 94.0651 164.667ZM210.667 164.667C209.111 163 208.333 161 208.333 158.667C208.333 156.333 209.111 154.389 210.667 152.833C212.333 151.167 214.333 150.333 216.667 150.333C219 150.333 220.944 151.167 222.5 152.833C224.167 154.389 225 156.333 225 158.667C225 161 224.167 163 222.5 164.667C220.944 166.222 219 167 216.667 167C214.333 167 212.333 166.222 210.667 164.667ZM177.333 164.667C175.778 163 175 161 175 158.667C175 156.333 175.778 154.389 177.333 152.833C179 151.167 181 150.333 183.333 150.333C185.667 150.333 187.611 151.167 189.167 152.833C190.833 154.389 191.667 156.333 191.667 158.667C191.667 161 190.833 163 189.167 164.667C187.611 166.222 185.667 167 183.333 167C181 167 179 166.222 177.333 164.667ZM160.667 164.667C159.111 163 158.333 161 158.333 158.667C158.333 156.333 159.111 154.389 160.667 152.833C162.333 151.167 164.333 150.333 166.667 150.333C169 150.333 170.944 151.167 172.5 152.833C174.167 154.389 175 156.333 175 158.667C175 161 174.167 163 172.5 164.667C170.944 166.222 169 167 166.667 167C164.333 167 162.333 166.222 160.667 164.667ZM194 164.667C192.444 163 191.667 161 191.667 158.667C191.667 156.333 192.444 154.389 194 152.833C195.667 151.167 197.667 150.333 200 150.333C202.333 150.333 204.278 151.167 205.833 152.833C207.5 154.389 208.333 156.333 208.333 158.667C208.333 161 207.5 163 205.833 164.667C204.278 166.222 202.333 167 200 167C197.667 167 195.667 166.222 194 164.667ZM144 164.667C142.444 163 141.667 161 141.667 158.667C141.667 156.333 142.444 154.389 144 152.833C145.667 151.167 147.667 150.333 150 150.333C152.333 150.333 154.278 151.167 155.833 152.833C157.5 154.389 158.333 156.333 158.333 158.667C158.333 161 157.5 163 155.833 164.667C154.278 166.222 152.333 167 150 167C147.667 167 145.667 166.222 144 164.667ZM127.333 148C125.778 146.333 125 144.333 125 142C125 139.667 125.778 137.722 127.333 136.167C129 134.5 131 133.667 133.333 133.667C135.667 133.667 137.611 134.5 139.167 136.167C140.833 137.722 141.667 139.667 141.667 142C141.667 144.333 140.833 146.333 139.167 148C137.611 149.556 135.667 150.333 133.333 150.333C131 150.333 129 149.556 127.333 148ZM144 148C142.444 146.333 141.667 144.333 141.667 142C141.667 139.667 142.444 137.722 144 136.167C145.667 134.5 147.667 133.667 150 133.667C152.333 133.667 154.278 134.5 155.833 136.167C157.5 137.722 158.333 139.667 158.333 142C158.333 144.333 157.5 146.333 155.833 148C154.278 149.556 152.333 150.333 150 150.333C147.667 150.333 145.667 149.556 144 148ZM160.667 148C159.111 146.333 158.333 144.333 158.333 142C158.333 139.667 159.111 137.722 160.667 136.167C162.333 134.5 164.333 133.667 166.667 133.667C169 133.667 170.944 134.5 172.5 136.167C174.167 137.722 175 139.667 175 142C175 144.333 174.167 146.333 172.5 148C170.944 149.556 169 150.333 166.667 150.333C164.333 150.333 162.333 149.556 160.667 148ZM177.333 148C175.778 146.333 175 144.333 175 142C175 139.667 175.778 137.722 177.333 136.167C179 134.5 181 133.667 183.333 133.667C185.667 133.667 187.611 134.5 189.167 136.167C190.833 137.722 191.667 139.667 191.667 142C191.667 144.333 190.833 146.333 189.167 148C187.611 149.556 185.667 150.333 183.333 150.333C181 150.333 179 149.556 177.333 148ZM194 148C192.444 146.333 191.667 144.333 191.667 142C191.667 139.667 192.444 137.722 194 136.167C195.667 134.5 197.667 133.667 200 133.667C202.333 133.667 204.278 134.5 205.833 136.167C207.5 137.722 208.333 139.667 208.333 142C208.333 144.333 207.5 146.333 205.833 148C204.278 149.556 202.333 150.333 200 150.333C197.667 150.333 195.667 149.556 194 148ZM210.667 148C209.111 146.333 208.333 144.333 208.333 142C208.333 139.667 209.111 137.722 210.667 136.167C212.333 134.5 214.333 133.667 216.667 133.667C219 133.667 220.944 134.5 222.5 136.167C224.167 137.722 225 139.667 225 142C225 144.333 224.167 146.333 222.5 148C220.944 149.556 219 150.333 216.667 150.333C214.333 150.333 212.333 149.556 210.667 148ZM210.667 131.333C209.111 129.667 208.333 127.667 208.333 125.333C208.333 123 209.111 121.056 210.667 119.5C212.333 117.833 214.333 117 216.667 117C219 117 220.944 117.833 222.5 119.5C224.167 121.056 225 123 225 125.333C225 127.667 224.167 129.667 222.5 131.333C220.944 132.889 219 133.667 216.667 133.667C214.333 133.667 212.333 132.889 210.667 131.333ZM210.667 114.667C209.111 113 208.333 111 208.333 108.667C208.333 106.333 209.111 104.389 210.667 102.833C212.333 101.167 214.333 100.333 216.667 100.333C219 100.333 220.944 101.167 222.5 102.833C224.167 104.389 225 106.333 225 108.667C225 111 224.167 113 222.5 114.667C220.944 116.222 219 117 216.667 117C214.333 117 212.333 116.222 210.667 114.667ZM194 114.667C192.444 113 191.667 111 191.667 108.667C191.667 106.333 192.444 104.389 194 102.833C195.667 101.167 197.667 100.333 200 100.333C202.333 100.333 204.278 101.167 205.833 102.833C207.5 104.389 208.333 106.333 208.333 108.667C208.333 111 207.5 113 205.833 114.667C204.278 116.222 202.333 117 200 117C197.667 117 195.667 116.222 194 114.667ZM194 131.333C192.444 129.667 191.667 127.667 191.667 125.333C191.667 123 192.444 121.056 194 119.5C195.667 117.833 197.667 117 200 117C202.333 117 204.278 117.833 205.833 119.5C207.5 121.056 208.333 123 208.333 125.333C208.333 127.667 207.5 129.667 205.833 131.333C204.278 132.889 202.333 133.667 200 133.667C197.667 133.667 195.667 132.889 194 131.333ZM144 131.333C142.444 129.667 141.667 127.667 141.667 125.333C141.667 123 142.444 121.056 144 119.5C145.667 117.833 147.667 117 150 117C152.333 117 154.278 117.833 155.833 119.5C157.5 121.056 158.333 123 158.333 125.333C158.333 127.667 157.5 129.667 155.833 131.333C154.278 132.889 152.333 133.667 150 133.667C147.667 133.667 145.667 132.889 144 131.333ZM127.333 131.333C125.778 129.667 125 127.667 125 125.333C125 123 125.778 121.056 127.333 119.5C129 117.833 131 117 133.333 117C135.667 117 137.611 117.833 139.167 119.5C140.833 121.056 141.667 123 141.667 125.333C141.667 127.667 140.833 129.667 139.167 131.333C137.611 132.889 135.667 133.667 133.333 133.667C131 133.667 129 132.889 127.333 131.333ZM127.333 114.667C125.778 113 125 111 125 108.667C125 106.333 125.778 104.389 127.333 102.833C129 101.167 131 100.333 133.333 100.333C135.667 100.333 137.611 101.167 139.167 102.833C140.833 104.389 141.667 106.333 141.667 108.667C141.667 111 140.833 113 139.167 114.667C137.611 116.222 135.667 117 133.333 117C131 117 129 116.222 127.333 114.667ZM144 114.667C142.444 113 141.667 111 141.667 108.667C141.667 106.333 142.444 104.389 144 102.833C145.667 101.167 147.667 100.333 150 100.333C152.333 100.333 154.278 101.167 155.833 102.833C157.5 104.389 158.333 106.333 158.333 108.667C158.333 111 157.5 113 155.833 114.667C154.278 116.222 152.333 117 150 117C147.667 117 145.667 116.222 144 114.667ZM160.667 114.667C159.111 113 158.333 111 158.333 108.667C158.333 106.333 159.111 104.389 160.667 102.833C162.333 101.167 164.333 100.333 166.667 100.333C169 100.333 170.944 101.167 172.5 102.833C174.167 104.389 175 106.333 175 108.667C175 111 174.167 113 172.5 114.667C170.944 116.222 169 117 166.667 117C164.333 117 162.333 116.222 160.667 114.667ZM177.333 114.667C175.778 113 175 111 175 108.667C175 106.333 175.778 104.389 177.333 102.833C179 101.167 181 100.333 183.333 100.333C185.667 100.333 187.611 101.167 189.167 102.833C190.833 104.389 191.667 106.333 191.667 108.667C191.667 111 190.833 113 189.167 114.667C187.611 116.222 185.667 117 183.333 117C181 117 179 116.222 177.333 114.667ZM210.667 98C209.111 96.3333 208.333 94.3333 208.333 92C208.333 89.6667 209.111 87.7222 210.667 86.1667C212.333 84.5 214.333 83.6667 216.667 83.6667C219 83.6667 220.944 84.5 222.5 86.1667C224.167 87.7222 225 89.6667 225 92C225 94.3333 224.167 96.3333 222.5 98C220.944 99.5556 219 100.333 216.667 100.333C214.333 100.333 212.333 99.5556 210.667 98ZM194 98C192.444 96.3333 191.667 94.3333 191.667 92C191.667 89.6667 192.444 87.7222 194 86.1667C195.667 84.5 197.667 83.6667 200 83.6667C202.333 83.6667 204.278 84.5 205.833 86.1667C207.5 87.7222 208.333 89.6667 208.333 92C208.333 94.3333 207.5 96.3333 205.833 98C204.278 99.5556 202.333 100.333 200 100.333C197.667 100.333 195.667 99.5556 194 98ZM177.333 98C175.778 96.3333 175 94.3333 175 92C175 89.6667 175.778 87.7222 177.333 86.1667C179 84.5 181 83.6667 183.333 83.6667C185.667 83.6667 187.611 84.5 189.167 86.1667C190.833 87.7222 191.667 89.6667 191.667 92C191.667 94.3333 190.833 96.3333 189.167 98C187.611 99.5556 185.667 100.333 183.333 100.333C181 100.333 179 99.5556 177.333 98ZM160.667 98C159.111 96.3333 158.333 94.3333 158.333 92C158.333 89.6667 159.111 87.7222 160.667 86.1667C162.333 84.5 164.333 83.6667 166.667 83.6667C169 83.6667 170.944 84.5 172.5 86.1667C174.167 87.7222 175 89.6667 175 92C175 94.3333 174.167 96.3333 172.5 98C170.944 99.5556 169 100.333 166.667 100.333C164.333 100.333 162.333 99.5556 160.667 98ZM144 98C142.444 96.3333 141.667 94.3333 141.667 92C141.667 89.6667 142.444 87.7222 144 86.1667C145.667 84.5 147.667 83.6667 150 83.6667C152.333 83.6667 154.278 84.5 155.833 86.1667C157.5 87.7222 158.333 89.6667 158.333 92C158.333 94.3333 157.5 96.3333 155.833 98C154.278 99.5556 152.333 100.333 150 100.333C147.667 100.333 145.667 99.5556 144 98ZM194 81.3333C192.444 79.6667 191.667 77.6667 191.667 75.3333C191.667 73 192.444 71.0556 194 69.5C195.667 67.8333 197.667 67 200 67C202.333 67 204.278 67.8333 205.833 69.5C207.5 71.0556 208.333 73 208.333 75.3333C208.333 77.6667 207.5 79.6667 205.833 81.3333C204.278 82.8889 202.333 83.6667 200 83.6667C197.667 83.6667 195.667 82.8889 194 81.3333ZM210.667 81.3333C209.111 79.6667 208.333 77.6667 208.333 75.3333C208.333 73 209.111 71.0556 210.667 69.5C212.333 67.8333 214.333 67 216.667 67C219 67 220.944 67.8333 222.5 69.5C224.167 71.0556 225 73 225 75.3333C225 77.6667 224.167 79.6667 222.5 81.3333C220.944 82.8889 219 83.6667 216.667 83.6667C214.333 83.6667 212.333 82.8889 210.667 81.3333ZM210.667 64.6667C209.111 63 208.333 61 208.333 58.6667C208.333 56.3333 209.111 54.3889 210.667 52.8333C212.333 51.1667 214.333 50.3333 216.667 50.3333C219 50.3333 220.944 51.1667 222.5 52.8333C224.167 54.3889 225 56.3333 225 58.6667C225 61 224.167 63 222.5 64.6667C220.944 66.2222 219 67 216.667 67C214.333 67 212.333 66.2222 210.667 64.6667ZM194 64.6667C192.444 63 191.667 61 191.667 58.6667C191.667 56.3333 192.444 54.3889 194 52.8333C195.667 51.1667 197.667 50.3333 200 50.3333C202.333 50.3333 204.278 51.1667 205.833 52.8333C207.5 54.3889 208.333 56.3333 208.333 58.6667C208.333 61 207.5 63 205.833 64.6667C204.278 66.2222 202.333 67 200 67C197.667 67 195.667 66.2222 194 64.6667ZM177.333 64.6667C175.778 63 175 61 175 58.6667C175 56.3333 175.778 54.3889 177.333 52.8333C179 51.1667 181 50.3333 183.333 50.3333C185.667 50.3333 187.611 51.1667 189.167 52.8333C190.833 54.3889 191.667 56.3333 191.667 58.6667C191.667 61 190.833 63 189.167 64.6667C187.611 66.2222 185.667 67 183.333 67C181 67 179 66.2222 177.333 64.6667ZM160.667 64.6667C159.111 63 158.333 61 158.333 58.6667C158.333 56.3333 159.111 54.3889 160.667 52.8333C162.333 51.1667 164.333 50.3333 166.667 50.3333C169 50.3333 170.944 51.1667 172.5 52.8333C174.167 54.3889 175 56.3333 175 58.6667C175 61 174.167 63 172.5 64.6667C170.944 66.2222 169 67 166.667 67C164.333 67 162.333 66.2222 160.667 64.6667ZM144 64.6667C142.444 63 141.667 61 141.667 58.6667C141.667 56.3333 142.444 54.3889 144 52.8333C145.667 51.1667 147.667 50.3333 150 50.3333C152.333 50.3333 154.278 51.1667 155.833 52.8333C157.5 54.3889 158.333 56.3333 158.333 58.6667C158.333 61 157.5 63 155.833 64.6667C154.278 66.2222 152.333 67 150 67C147.667 67 145.667 66.2222 144 64.6667ZM127.333 64.6667C125.778 63 125 61 125 58.6667C125 56.3333 125.778 54.3889 127.333 52.8333C129 51.1667 131 50.3333 133.333 50.3333C135.667 50.3333 137.611 51.1667 139.167 52.8333C140.833 54.3889 141.667 56.3333 141.667 58.6667C141.667 61 140.833 63 139.167 64.6667C137.611 66.2222 135.667 67 133.333 67C131 67 129 66.2222 127.333 64.6667ZM144 48C142.444 46.3333 141.667 44.3333 141.667 42C141.667 39.6667 142.444 37.7222 144 36.1667C145.667 34.5 147.667 33.6667 150 33.6667C152.333 33.6667 154.278 34.5 155.833 36.1667C157.5 37.7222 158.333 39.6667 158.333 42C158.333 44.3333 157.5 46.3333 155.833 48C154.278 49.5555 152.333 50.3333 150 50.3333C147.667 50.3333 145.667 49.5555 144 48ZM160.667 48C159.111 46.3333 158.333 44.3333 158.333 42C158.333 39.6667 159.111 37.7222 160.667 36.1667C162.333 34.5 164.333 33.6667 166.667 33.6667C169 33.6667 170.944 34.5 172.5 36.1667C174.167 37.7222 175 39.6667 175 42C175 44.3333 174.167 46.3333 172.5 48C170.944 49.5555 169 50.3333 166.667 50.3333C164.333 50.3333 162.333 49.5555 160.667 48ZM177.333 48C175.778 46.3333 175 44.3333 175 42C175 39.6667 175.778 37.7222 177.333 36.1667C179 34.5 181 33.6667 183.333 33.6667C185.667 33.6667 187.611 34.5 189.167 36.1667C190.833 37.7222 191.667 39.6667 191.667 42C191.667 44.3333 190.833 46.3333 189.167 48C187.611 49.5555 185.667 50.3333 183.333 50.3333C181 50.3333 179 49.5555 177.333 48ZM194 48C192.444 46.3333 191.667 44.3333 191.667 42C191.667 39.6667 192.444 37.7222 194 36.1667C195.667 34.5 197.667 33.6667 200 33.6667C202.333 33.6667 204.278 34.5 205.833 36.1667C207.5 37.7222 208.333 39.6667 208.333 42C208.333 44.3333 207.5 46.3333 205.833 48C204.278 49.5555 202.333 50.3333 200 50.3333C197.667 50.3333 195.667 49.5555 194 48ZM243.935 164.667C242.379 163 241.602 161 241.602 158.667C241.602 156.333 242.379 154.389 243.935 152.833C245.602 151.167 247.602 150.333 249.935 150.333C252.268 150.333 254.213 151.167 255.768 152.833C257.435 154.389 258.268 156.333 258.268 158.667C258.268 161 257.435 163 255.768 164.667C254.213 166.222 252.268 167 249.935 167C247.602 167 245.602 166.222 243.935 164.667ZM243.935 131.333C242.379 129.667 241.602 127.667 241.602 125.333C241.602 123 242.379 121.056 243.935 119.5C245.602 117.833 247.602 117 249.935 117C252.268 117 254.213 117.833 255.768 119.5C257.435 121.056 258.268 123 258.268 125.333C258.268 127.667 257.435 129.667 255.768 131.333C254.213 132.889 252.268 133.667 249.935 133.667C247.602 133.667 245.602 132.889 243.935 131.333ZM243.935 114.667C242.379 113 241.602 111 241.602 108.667C241.602 106.333 242.379 104.389 243.935 102.833C245.602 101.167 247.602 100.333 249.935 100.333C252.268 100.333 254.213 101.167 255.768 102.833C257.435 104.389 258.268 106.333 258.268 108.667C258.268 111 257.435 113 255.768 114.667C254.213 116.222 252.268 117 249.935 117C247.602 117 245.602 116.222 243.935 114.667ZM243.935 98C242.379 96.3333 241.602 94.3333 241.602 92C241.602 89.6667 242.379 87.7222 243.935 86.1667C245.602 84.5 247.602 83.6667 249.935 83.6667C252.268 83.6667 254.213 84.5 255.768 86.1667C257.435 87.7222 258.268 89.6667 258.268 92C258.268 94.3333 257.435 96.3333 255.768 98C254.213 99.5556 252.268 100.333 249.935 100.333C247.602 100.333 245.602 99.5556 243.935 98ZM243.935 81.3333C242.379 79.6667 241.602 77.6667 241.602 75.3333C241.602 73 242.379 71.0556 243.935 69.5C245.602 67.8333 247.602 67 249.935 67C252.268 67 254.213 67.8333 255.768 69.5C257.435 71.0556 258.268 73 258.268 75.3333C258.268 77.6667 257.435 79.6667 255.768 81.3333C254.213 82.8889 252.268 83.6667 249.935 83.6667C247.602 83.6667 245.602 82.8889 243.935 81.3333ZM243.935 64.6667C242.379 63 241.602 61 241.602 58.6667C241.602 56.3333 242.379 54.3889 243.935 52.8333C245.602 51.1667 247.602 50.3333 249.935 50.3333C252.268 50.3333 254.213 51.1667 255.768 52.8333C257.435 54.3889 258.268 56.3333 258.268 58.6667C258.268 61 257.435 63 255.768 64.6667C254.213 66.2222 252.268 67 249.935 67C247.602 67 245.602 66.2222 243.935 64.6667ZM243.935 48C242.379 46.3333 241.602 44.3333 241.602 42C241.602 39.6667 242.379 37.7222 243.935 36.1667C245.602 34.5 247.602 33.6667 249.935 33.6667C252.268 33.6667 254.213 34.5 255.768 36.1667C257.435 37.7222 258.268 39.6667 258.268 42C258.268 44.3333 257.435 46.3333 255.768 48C254.213 49.5555 252.268 50.3333 249.935 50.3333C247.602 50.3333 245.602 49.5555 243.935 48ZM260.602 48C259.046 46.3333 258.268 44.3333 258.268 42C258.268 39.6667 259.046 37.7222 260.602 36.1667C262.268 34.5 264.268 33.6667 266.602 33.6667C268.935 33.6667 270.879 34.5 272.435 36.1667C274.102 37.7222 274.935 39.6667 274.935 42C274.935 44.3333 274.102 46.3333 272.435 48C270.879 49.5555 268.935 50.3333 266.602 50.3333C264.268 50.3333 262.268 49.5555 260.602 48ZM260.602 64.6667C259.046 63 258.268 61 258.268 58.6667C258.268 56.3333 259.046 54.3889 260.602 52.8333C262.268 51.1667 264.268 50.3333 266.602 50.3333C268.935 50.3333 270.879 51.1667 272.435 52.8333C274.102 54.3889 274.935 56.3333 274.935 58.6667C274.935 61 274.102 63 272.435 64.6667C270.879 66.2222 268.935 67 266.602 67C264.268 67 262.268 66.2222 260.602 64.6667ZM260.602 81.3333C259.046 79.6667 258.268 77.6667 258.268 75.3333C258.268 73 259.046 71.0556 260.602 69.5C262.268 67.8333 264.268 67 266.602 67C268.935 67 270.879 67.8333 272.435 69.5C274.102 71.0556 274.935 73 274.935 75.3333C274.935 77.6667 274.102 79.6667 272.435 81.3333C270.879 82.8889 268.935 83.6667 266.602 83.6667C264.268 83.6667 262.268 82.8889 260.602 81.3333ZM260.602 98C259.046 96.3333 258.268 94.3333 258.268 92C258.268 89.6667 259.046 87.7222 260.602 86.1667C262.268 84.5 264.268 83.6667 266.602 83.6667C268.935 83.6667 270.879 84.5 272.435 86.1667C274.102 87.7222 274.935 89.6667 274.935 92C274.935 94.3333 274.102 96.3333 272.435 98C270.879 99.5556 268.935 100.333 266.602 100.333C264.268 100.333 262.268 99.5556 260.602 98ZM260.602 114.667C259.046 113 258.268 111 258.268 108.667C258.268 106.333 259.046 104.389 260.602 102.833C262.268 101.167 264.268 100.333 266.602 100.333C268.935 100.333 270.879 101.167 272.435 102.833C274.102 104.389 274.935 106.333 274.935 108.667C274.935 111 274.102 113 272.435 114.667C270.879 116.222 268.935 117 266.602 117C264.268 117 262.268 116.222 260.602 114.667ZM260.602 131.333C259.046 129.667 258.268 127.667 258.268 125.333C258.268 123 259.046 121.056 260.602 119.5C262.268 117.833 264.268 117 266.602 117C268.935 117 270.879 117.833 272.435 119.5C274.102 121.056 274.935 123 274.935 125.333C274.935 127.667 274.102 129.667 272.435 131.333C270.879 132.889 268.935 133.667 266.602 133.667C264.268 133.667 262.268 132.889 260.602 131.333ZM260.602 148C259.046 146.333 258.268 144.333 258.268 142C258.268 139.667 259.046 137.722 260.602 136.167C262.268 134.5 264.268 133.667 266.602 133.667C268.935 133.667 270.879 134.5 272.435 136.167C274.102 137.722 274.935 139.667 274.935 142C274.935 144.333 274.102 146.333 272.435 148C270.879 149.556 268.935 150.333 266.602 150.333C264.268 150.333 262.268 149.556 260.602 148ZM260.602 164.667C259.046 163 258.268 161 258.268 158.667C258.268 156.333 259.046 154.389 260.602 152.833C262.268 151.167 264.268 150.333 266.602 150.333C268.935 150.333 270.879 151.167 272.435 152.833C274.102 154.389 274.935 156.333 274.935 158.667C274.935 161 274.102 163 272.435 164.667C270.879 166.222 268.935 167 266.602 167C264.268 167 262.268 166.222 260.602 164.667ZM243.935 148C242.379 146.333 241.602 144.333 241.602 142C241.602 139.667 242.379 137.722 243.935 136.167C245.602 134.5 247.602 133.667 249.935 133.667C252.268 133.667 254.213 134.5 255.768 136.167C257.435 137.722 258.268 139.667 258.268 142C258.268 144.333 257.435 146.333 255.768 148C254.213 149.556 252.268 150.333 249.935 150.333C247.602 150.333 245.602 149.556 243.935 148ZM277.268 48C275.713 46.3333 274.935 44.3333 274.935 42C274.935 39.6667 275.713 37.7222 277.268 36.1667C278.935 34.5 280.935 33.6667 283.268 33.6667C285.602 33.6667 287.546 34.5 289.102 36.1667C290.768 37.7222 291.602 39.6667 291.602 42C291.602 44.3333 290.768 46.3333 289.102 48C287.546 49.5555 285.602 50.3333 283.268 50.3333C280.935 50.3333 278.935 49.5555 277.268 48ZM277.268 64.6667C275.713 63 274.935 61 274.935 58.6667C274.935 56.3333 275.713 54.3889 277.268 52.8333C278.935 51.1667 280.935 50.3333 283.268 50.3333C285.602 50.3333 287.546 51.1667 289.102 52.8333C290.768 54.3889 291.602 56.3333 291.602 58.6667C291.602 61 290.768 63 289.102 64.6667C287.546 66.2222 285.602 67 283.268 67C280.935 67 278.935 66.2222 277.268 64.6667ZM293.935 64.6667C292.379 63 291.602 61 291.602 58.6667C291.602 56.3333 292.379 54.3889 293.935 52.8333C295.602 51.1667 297.602 50.3333 299.935 50.3333C302.268 50.3333 304.213 51.1667 305.768 52.8333C307.435 54.3889 308.268 56.3333 308.268 58.6667C308.268 61 307.435 63 305.768 64.6667C304.213 66.2222 302.268 67 299.935 67C297.602 67 295.602 66.2222 293.935 64.6667ZM293.935 81.3333C292.379 79.6667 291.602 77.6667 291.602 75.3333C291.602 73 292.379 71.0556 293.935 69.5C295.602 67.8333 297.602 67 299.935 67C302.268 67 304.213 67.8333 305.768 69.5C307.435 71.0556 308.268 73 308.268 75.3333C308.268 77.6667 307.435 79.6667 305.768 81.3333C304.213 82.8889 302.268 83.6667 299.935 83.6667C297.602 83.6667 295.602 82.8889 293.935 81.3333ZM293.935 98C292.379 96.3333 291.602 94.3333 291.602 92C291.602 89.6667 292.379 87.7222 293.935 86.1667C295.602 84.5 297.602 83.6667 299.935 83.6667C302.268 83.6667 304.213 84.5 305.768 86.1667C307.435 87.7222 308.268 89.6667 308.268 92C308.268 94.3333 307.435 96.3333 305.768 98C304.213 99.5556 302.268 100.333 299.935 100.333C297.602 100.333 295.602 99.5556 293.935 98ZM293.935 114.667C292.379 113 291.602 111 291.602 108.667C291.602 106.333 292.379 104.389 293.935 102.833C295.602 101.167 297.602 100.333 299.935 100.333C302.268 100.333 304.213 101.167 305.768 102.833C307.435 104.389 308.268 106.333 308.268 108.667C308.268 111 307.435 113 305.768 114.667C304.213 116.222 302.268 117 299.935 117C297.602 117 295.602 116.222 293.935 114.667ZM293.935 131.333C292.379 129.667 291.602 127.667 291.602 125.333C291.602 123 292.379 121.056 293.935 119.5C295.602 117.833 297.602 117 299.935 117C302.268 117 304.213 117.833 305.768 119.5C307.435 121.056 308.268 123 308.268 125.333C308.268 127.667 307.435 129.667 305.768 131.333C304.213 132.889 302.268 133.667 299.935 133.667C297.602 133.667 295.602 132.889 293.935 131.333ZM293.935 148C292.379 146.333 291.602 144.333 291.602 142C291.602 139.667 292.379 137.722 293.935 136.167C295.602 134.5 297.602 133.667 299.935 133.667C302.268 133.667 304.213 134.5 305.768 136.167C307.435 137.722 308.268 139.667 308.268 142C308.268 144.333 307.435 146.333 305.768 148C304.213 149.556 302.268 150.333 299.935 150.333C297.602 150.333 295.602 149.556 293.935 148ZM293.935 164.667C292.379 163 291.602 161 291.602 158.667C291.602 156.333 292.379 154.389 293.935 152.833C295.602 151.167 297.602 150.333 299.935 150.333C302.268 150.333 304.213 151.167 305.768 152.833C307.435 154.389 308.268 156.333 308.268 158.667C308.268 161 307.435 163 305.768 164.667C304.213 166.222 302.268 167 299.935 167C297.602 167 295.602 166.222 293.935 164.667ZM310.602 164.667C309.046 163 308.268 161 308.268 158.667C308.268 156.333 309.046 154.389 310.602 152.833C312.268 151.167 314.268 150.333 316.602 150.333C318.935 150.333 320.879 151.167 322.435 152.833C324.102 154.389 324.935 156.333 324.935 158.667C324.935 161 324.102 163 322.435 164.667C320.879 166.222 318.935 167 316.602 167C314.268 167 312.268 166.222 310.602 164.667ZM310.602 148C309.046 146.333 308.268 144.333 308.268 142C308.268 139.667 309.046 137.722 310.602 136.167C312.268 134.5 314.268 133.667 316.602 133.667C318.935 133.667 320.879 134.5 322.435 136.167C324.102 137.722 324.935 139.667 324.935 142C324.935 144.333 324.102 146.333 322.435 148C320.879 149.556 318.935 150.333 316.602 150.333C314.268 150.333 312.268 149.556 310.602 148ZM310.602 131.333C309.046 129.667 308.268 127.667 308.268 125.333C308.268 123 309.046 121.056 310.602 119.5C312.268 117.833 314.268 117 316.602 117C318.935 117 320.879 117.833 322.435 119.5C324.102 121.056 324.935 123 324.935 125.333C324.935 127.667 324.102 129.667 322.435 131.333C320.879 132.889 318.935 133.667 316.602 133.667C314.268 133.667 312.268 132.889 310.602 131.333ZM310.602 114.667C309.046 113 308.268 111 308.268 108.667C308.268 106.333 309.046 104.389 310.602 102.833C312.268 101.167 314.268 100.333 316.602 100.333C318.935 100.333 320.879 101.167 322.435 102.833C324.102 104.389 324.935 106.333 324.935 108.667C324.935 111 324.102 113 322.435 114.667C320.879 116.222 318.935 117 316.602 117C314.268 117 312.268 116.222 310.602 114.667ZM310.602 98C309.046 96.3333 308.268 94.3333 308.268 92C308.268 89.6667 309.046 87.7222 310.602 86.1667C312.268 84.5 314.268 83.6667 316.602 83.6667C318.935 83.6667 320.879 84.5 322.435 86.1667C324.102 87.7222 324.935 89.6667 324.935 92C324.935 94.3333 324.102 96.3333 322.435 98C320.879 99.5556 318.935 100.333 316.602 100.333C314.268 100.333 312.268 99.5556 310.602 98ZM310.602 81.3333C309.046 79.6667 308.268 77.6667 308.268 75.3333C308.268 73 309.046 71.0556 310.602 69.5C312.268 67.8333 314.268 67 316.602 67C318.935 67 320.879 67.8333 322.435 69.5C324.102 71.0556 324.935 73 324.935 75.3333C324.935 77.6667 324.102 79.6667 322.435 81.3333C320.879 82.8889 318.935 83.6667 316.602 83.6667C314.268 83.6667 312.268 82.8889 310.602 81.3333ZM310.602 64.6667C309.046 63 308.268 61 308.268 58.6667C308.268 56.3333 309.046 54.3889 310.602 52.8333C312.268 51.1667 314.268 50.3333 316.602 50.3333C318.935 50.3333 320.879 51.1667 322.435 52.8333C324.102 54.3889 324.935 56.3333 324.935 58.6667C324.935 61 324.102 63 322.435 64.6667C320.879 66.2222 318.935 67 316.602 67C314.268 67 312.268 66.2222 310.602 64.6667ZM310.602 48C309.046 46.3333 308.268 44.3333 308.268 42C308.268 39.6667 309.046 37.7222 310.602 36.1667C312.268 34.5 314.268 33.6667 316.602 33.6667C318.935 33.6667 320.879 34.5 322.435 36.1667C324.102 37.7222 324.935 39.6667 324.935 42C324.935 44.3333 324.102 46.3333 322.435 48C320.879 49.5555 318.935 50.3333 316.602 50.3333C314.268 50.3333 312.268 49.5555 310.602 48ZM327.268 48C325.713 46.3333 324.935 44.3333 324.935 42C324.935 39.6667 325.713 37.7222 327.268 36.1667C328.935 34.5 330.935 33.6667 333.268 33.6667C335.602 33.6667 337.546 34.5 339.102 36.1667C340.768 37.7222 341.602 39.6667 341.602 42C341.602 44.3333 340.768 46.3333 339.102 48C337.546 49.5555 335.602 50.3333 333.268 50.3333C330.935 50.3333 328.935 49.5555 327.268 48ZM327.268 64.6667C325.713 63 324.935 61 324.935 58.6667C324.935 56.3333 325.713 54.3889 327.268 52.8333C328.935 51.1667 330.935 50.3333 333.268 50.3333C335.602 50.3333 337.546 51.1667 339.102 52.8333C340.768 54.3889 341.602 56.3333 341.602 58.6667C341.602 61 340.768 63 339.102 64.6667C337.546 66.2222 335.602 67 333.268 67C330.935 67 328.935 66.2222 327.268 64.6667ZM343.935 48C342.379 46.3333 341.602 44.3333 341.602 42C341.602 39.6667 342.379 37.7222 343.935 36.1667C345.602 34.5 347.602 33.6667 349.935 33.6667C352.268 33.6667 354.213 34.5 355.768 36.1667C357.435 37.7222 358.268 39.6667 358.268 42C358.268 44.3333 357.435 46.3333 355.768 48C354.213 49.5555 352.268 50.3333 349.935 50.3333C347.602 50.3333 345.602 49.5555 343.935 48ZM343.935 64.6667C342.379 63 341.602 61 341.602 58.6667C341.602 56.3333 342.379 54.3889 343.935 52.8333C345.602 51.1667 347.602 50.3333 349.935 50.3333C352.268 50.3333 354.213 51.1667 355.768 52.8333C357.435 54.3889 358.268 56.3333 358.268 58.6667C358.268 61 357.435 63 355.768 64.6667C354.213 66.2222 352.268 67 349.935 67C347.602 67 345.602 66.2222 343.935 64.6667ZM343.935 81.3333C342.379 79.6667 341.602 77.6667 341.602 75.3333C341.602 73 342.379 71.0556 343.935 69.5C345.602 67.8333 347.602 67 349.935 67C352.268 67 354.213 67.8333 355.768 69.5C357.435 71.0556 358.268 73 358.268 75.3333C358.268 77.6667 357.435 79.6667 355.768 81.3333C354.213 82.8889 352.268 83.6667 349.935 83.6667C347.602 83.6667 345.602 82.8889 343.935 81.3333ZM343.935 98C342.379 96.3333 341.602 94.3333 341.602 92C341.602 89.6667 342.379 87.7222 343.935 86.1667C345.602 84.5 347.602 83.6667 349.935 83.6667C352.268 83.6667 354.213 84.5 355.768 86.1667C357.435 87.7222 358.268 89.6667 358.268 92C358.268 94.3333 357.435 96.3333 355.768 98C354.213 99.5556 352.268 100.333 349.935 100.333C347.602 100.333 345.602 99.5556 343.935 98ZM343.935 114.667C342.379 113 341.602 111 341.602 108.667C341.602 106.333 342.379 104.389 343.935 102.833C345.602 101.167 347.602 100.333 349.935 100.333C352.268 100.333 354.213 101.167 355.768 102.833C357.435 104.389 358.268 106.333 358.268 108.667C358.268 111 357.435 113 355.768 114.667C354.213 116.222 352.268 117 349.935 117C347.602 117 345.602 116.222 343.935 114.667ZM343.935 131.333C342.379 129.667 341.602 127.667 341.602 125.333C341.602 123 342.379 121.056 343.935 119.5C345.602 117.833 347.602 117 349.935 117C352.268 117 354.213 117.833 355.768 119.5C357.435 121.056 358.268 123 358.268 125.333C358.268 127.667 357.435 129.667 355.768 131.333C354.213 132.889 352.268 133.667 349.935 133.667C347.602 133.667 345.602 132.889 343.935 131.333ZM343.935 148C342.379 146.333 341.602 144.333 341.602 142C341.602 139.667 342.379 137.722 343.935 136.167C345.602 134.5 347.602 133.667 349.935 133.667C352.268 133.667 354.213 134.5 355.768 136.167C357.435 137.722 358.268 139.667 358.268 142C358.268 144.333 357.435 146.333 355.768 148C354.213 149.556 352.268 150.333 349.935 150.333C347.602 150.333 345.602 149.556 343.935 148ZM343.935 164.667C342.379 163 341.602 161 341.602 158.667C341.602 156.333 342.379 154.389 343.935 152.833C345.602 151.167 347.602 150.333 349.935 150.333C352.268 150.333 354.213 151.167 355.768 152.833C357.435 154.389 358.268 156.333 358.268 158.667C358.268 161 357.435 163 355.768 164.667C354.213 166.222 352.268 167 349.935 167C347.602 167 345.602 166.222 343.935 164.667ZM360.602 164.667C359.046 163 358.268 161 358.268 158.667C358.268 156.333 359.046 154.389 360.602 152.833C362.268 151.167 364.268 150.333 366.602 150.333C368.935 150.333 370.879 151.167 372.435 152.833C374.102 154.389 374.935 156.333 374.935 158.667C374.935 161 374.102 163 372.435 164.667C370.879 166.222 368.935 167 366.602 167C364.268 167 362.268 166.222 360.602 164.667ZM360.602 148C359.046 146.333 358.268 144.333 358.268 142C358.268 139.667 359.046 137.722 360.602 136.167C362.268 134.5 364.268 133.667 366.602 133.667C368.935 133.667 370.879 134.5 372.435 136.167C374.102 137.722 374.935 139.667 374.935 142C374.935 144.333 374.102 146.333 372.435 148C370.879 149.556 368.935 150.333 366.602 150.333C364.268 150.333 362.268 149.556 360.602 148ZM360.602 131.333C359.046 129.667 358.268 127.667 358.268 125.333C358.268 123 359.046 121.056 360.602 119.5C362.268 117.833 364.268 117 366.602 117C368.935 117 370.879 117.833 372.435 119.5C374.102 121.056 374.935 123 374.935 125.333C374.935 127.667 374.102 129.667 372.435 131.333C370.879 132.889 368.935 133.667 366.602 133.667C364.268 133.667 362.268 132.889 360.602 131.333ZM360.602 114.667C359.046 113 358.268 111 358.268 108.667C358.268 106.333 359.046 104.389 360.602 102.833C362.268 101.167 364.268 100.333 366.602 100.333C368.935 100.333 370.879 101.167 372.435 102.833C374.102 104.389 374.935 106.333 374.935 108.667C374.935 111 374.102 113 372.435 114.667C370.879 116.222 368.935 117 366.602 117C364.268 117 362.268 116.222 360.602 114.667ZM360.602 98C359.046 96.3333 358.268 94.3333 358.268 92C358.268 89.6667 359.046 87.7222 360.602 86.1667C362.268 84.5 364.268 83.6667 366.602 83.6667C368.935 83.6667 370.879 84.5 372.435 86.1667C374.102 87.7222 374.935 89.6667 374.935 92C374.935 94.3333 374.102 96.3333 372.435 98C370.879 99.5556 368.935 100.333 366.602 100.333C364.268 100.333 362.268 99.5556 360.602 98ZM360.602 81.3333C359.046 79.6667 358.268 77.6667 358.268 75.3333C358.268 73 359.046 71.0556 360.602 69.5C362.268 67.8333 364.268 67 366.602 67C368.935 67 370.879 67.8333 372.435 69.5C374.102 71.0556 374.935 73 374.935 75.3333C374.935 77.6667 374.102 79.6667 372.435 81.3333C370.879 82.8889 368.935 83.6667 366.602 83.6667C364.268 83.6667 362.268 82.8889 360.602 81.3333ZM360.602 64.6667C359.046 63 358.268 61 358.268 58.6667C358.268 56.3333 359.046 54.3889 360.602 52.8333C362.268 51.1667 364.268 50.3333 366.602 50.3333C368.935 50.3333 370.879 51.1667 372.435 52.8333C374.102 54.3889 374.935 56.3333 374.935 58.6667C374.935 61 374.102 63 372.435 64.6667C370.879 66.2222 368.935 67 366.602 67C364.268 67 362.268 66.2222 360.602 64.6667ZM19.0977 379.667C17.5421 378 16.7643 376 16.7643 373.667C16.7643 371.333 17.5421 369.389 19.0977 367.833C20.7643 366.167 22.7643 365.333 25.0977 365.333C27.431 365.333 29.3754 366.167 30.931 367.833C32.5977 369.389 33.431 371.333 33.431 373.667C33.431 376 32.5977 378 30.931 379.667C29.3754 381.222 27.431 382 25.0977 382C22.7643 382 20.7643 381.222 19.0977 379.667ZM35.7643 379.667C34.2088 378 33.431 376 33.431 373.667C33.431 371.333 34.2088 369.389 35.7643 367.833C37.431 366.167 39.431 365.333 41.7643 365.333C44.0977 365.333 46.0421 366.167 47.5977 367.833C49.2643 369.389 50.0977 371.333 50.0977 373.667C50.0977 376 49.2643 378 47.5977 379.667C46.0421 381.222 44.0977 382 41.7643 382C39.431 382 37.431 381.222 35.7643 379.667ZM52.431 379.667C50.8754 378 50.0977 376 50.0977 373.667C50.0977 371.333 50.8754 369.389 52.431 367.833C54.0977 366.167 56.0977 365.333 58.431 365.333C60.7643 365.333 62.7088 366.167 64.2643 367.833C65.931 369.389 66.7643 371.333 66.7643 373.667C66.7643 376 65.931 378 64.2643 379.667C62.7088 381.222 60.7643 382 58.431 382C56.0977 382 54.0977 381.222 52.431 379.667ZM69.0977 379.667C67.5421 378 66.7643 376 66.7643 373.667C66.7643 371.333 67.5421 369.389 69.0977 367.833C70.7643 366.167 72.7643 365.333 75.0977 365.333C77.431 365.333 79.3754 366.167 80.931 367.833C82.5977 369.389 83.431 371.333 83.431 373.667C83.431 376 82.5977 378 80.931 379.667C79.3754 381.222 77.431 382 75.0977 382C72.7643 382 70.7643 381.222 69.0977 379.667ZM85.7643 363C84.2088 361.333 83.431 359.333 83.431 357C83.431 354.667 84.2088 352.722 85.7643 351.167C87.431 349.5 89.431 348.667 91.7643 348.667C94.0977 348.667 96.0421 349.5 97.5977 351.167C99.2643 352.722 100.098 354.667 100.098 357C100.098 359.333 99.2643 361.333 97.5977 363C96.0421 364.556 94.0977 365.333 91.7643 365.333C89.431 365.333 87.431 364.556 85.7643 363ZM52.431 363C50.8754 361.333 50.0977 359.333 50.0977 357C50.0977 354.667 50.8754 352.722 52.431 351.167C54.0977 349.5 56.0977 348.667 58.431 348.667C60.7643 348.667 62.7088 349.5 64.2643 351.167C65.931 352.722 66.7643 354.667 66.7643 357C66.7643 359.333 65.931 361.333 64.2643 363C62.7088 364.556 60.7643 365.333 58.431 365.333C56.0977 365.333 54.0977 364.556 52.431 363ZM35.7643 363C34.2088 361.333 33.431 359.333 33.431 357C33.431 354.667 34.2088 352.722 35.7643 351.167C37.431 349.5 39.431 348.667 41.7643 348.667C44.0977 348.667 46.0421 349.5 47.5977 351.167C49.2643 352.722 50.0977 354.667 50.0977 357C50.0977 359.333 49.2643 361.333 47.5977 363C46.0421 364.556 44.0977 365.333 41.7643 365.333C39.431 365.333 37.431 364.556 35.7643 363ZM19.0977 363C17.5421 361.333 16.7643 359.333 16.7643 357C16.7643 354.667 17.5421 352.722 19.0977 351.167C20.7643 349.5 22.7643 348.667 25.0977 348.667C27.431 348.667 29.3754 349.5 30.931 351.167C32.5977 352.722 33.431 354.667 33.431 357C33.431 359.333 32.5977 361.333 30.931 363C29.3754 364.556 27.431 365.333 25.0977 365.333C22.7643 365.333 20.7643 364.556 19.0977 363ZM2.43099 363C0.875434 361.333 0.0976562 359.333 0.0976562 357C0.0976562 354.667 0.875434 352.722 2.43099 351.167C4.09766 349.5 6.09766 348.667 8.43099 348.667C10.7643 348.667 12.7088 349.5 14.2643 351.167C15.931 352.722 16.7643 354.667 16.7643 357C16.7643 359.333 15.931 361.333 14.2643 363C12.7088 364.556 10.7643 365.333 8.43099 365.333C6.09766 365.333 4.09766 364.556 2.43099 363ZM2.43099 346.333C0.875434 344.667 0.0976562 342.667 0.0976562 340.333C0.0976562 338 0.875434 336.056 2.43099 334.5C4.09766 332.833 6.09766 332 8.43099 332C10.7643 332 12.7088 332.833 14.2643 334.5C15.931 336.056 16.7643 338 16.7643 340.333C16.7643 342.667 15.931 344.667 14.2643 346.333C12.7088 347.889 10.7643 348.667 8.43099 348.667C6.09766 348.667 4.09766 347.889 2.43099 346.333ZM19.0977 346.333C17.5421 344.667 16.7643 342.667 16.7643 340.333C16.7643 338 17.5421 336.056 19.0977 334.5C20.7643 332.833 22.7643 332 25.0977 332C27.431 332 29.3754 332.833 30.931 334.5C32.5977 336.056 33.431 338 33.431 340.333C33.431 342.667 32.5977 344.667 30.931 346.333C29.3754 347.889 27.431 348.667 25.0977 348.667C22.7643 348.667 20.7643 347.889 19.0977 346.333ZM69.0977 346.333C67.5421 344.667 66.7643 342.667 66.7643 340.333C66.7643 338 67.5421 336.056 69.0977 334.5C70.7643 332.833 72.7643 332 75.0977 332C77.431 332 79.3754 332.833 80.931 334.5C82.5977 336.056 83.431 338 83.431 340.333C83.431 342.667 82.5977 344.667 80.931 346.333C79.3754 347.889 77.431 348.667 75.0977 348.667C72.7643 348.667 70.7643 347.889 69.0977 346.333ZM69.0977 363C67.5421 361.333 66.7643 359.333 66.7643 357C66.7643 354.667 67.5421 352.722 69.0977 351.167C70.7643 349.5 72.7643 348.667 75.0977 348.667C77.431 348.667 79.3754 349.5 80.931 351.167C82.5977 352.722 83.431 354.667 83.431 357C83.431 359.333 82.5977 361.333 80.931 363C79.3754 364.556 77.431 365.333 75.0977 365.333C72.7643 365.333 70.7643 364.556 69.0977 363ZM85.7643 346.333C84.2088 344.667 83.431 342.667 83.431 340.333C83.431 338 84.2088 336.056 85.7643 334.5C87.431 332.833 89.431 332 91.7643 332C94.0977 332 96.0421 332.833 97.5977 334.5C99.2643 336.056 100.098 338 100.098 340.333C100.098 342.667 99.2643 344.667 97.5977 346.333C96.0421 347.889 94.0977 348.667 91.7643 348.667C89.431 348.667 87.431 347.889 85.7643 346.333ZM85.7643 296.333C84.2088 294.667 83.431 292.667 83.431 290.333C83.431 288 84.2088 286.056 85.7643 284.5C87.431 282.833 89.431 282 91.7643 282C94.0977 282 96.0421 282.833 97.5977 284.5C99.2643 286.056 100.098 288 100.098 290.333C100.098 292.667 99.2643 294.667 97.5977 296.333C96.0421 297.889 94.0977 298.667 91.7643 298.667C89.431 298.667 87.431 297.889 85.7643 296.333ZM69.0977 296.333C67.5421 294.667 66.7643 292.667 66.7643 290.333C66.7643 288 67.5421 286.056 69.0977 284.5C70.7643 282.833 72.7643 282 75.0977 282C77.431 282 79.3754 282.833 80.931 284.5C82.5977 286.056 83.431 288 83.431 290.333C83.431 292.667 82.5977 294.667 80.931 296.333C79.3754 297.889 77.431 298.667 75.0977 298.667C72.7643 298.667 70.7643 297.889 69.0977 296.333ZM69.0977 279.667C67.5421 278 66.7643 276 66.7643 273.667C66.7643 271.333 67.5421 269.389 69.0977 267.833C70.7643 266.167 72.7643 265.333 75.0977 265.333C77.431 265.333 79.3754 266.167 80.931 267.833C82.5977 269.389 83.431 271.333 83.431 273.667C83.431 276 82.5977 278 80.931 279.667C79.3754 281.222 77.431 282 75.0977 282C72.7643 282 70.7643 281.222 69.0977 279.667ZM2.43099 279.667C0.875434 278 0.0976562 276 0.0976562 273.667C0.0976562 271.333 0.875434 269.389 2.43099 267.833C4.09766 266.167 6.09766 265.333 8.43099 265.333C10.7643 265.333 12.7088 266.167 14.2643 267.833C15.931 269.389 16.7643 271.333 16.7643 273.667C16.7643 276 15.931 278 14.2643 279.667C12.7088 281.222 10.7643 282 8.43099 282C6.09766 282 4.09766 281.222 2.43099 279.667ZM19.0977 279.667C17.5421 278 16.7643 276 16.7643 273.667C16.7643 271.333 17.5421 269.389 19.0977 267.833C20.7643 266.167 22.7643 265.333 25.0977 265.333C27.431 265.333 29.3754 266.167 30.931 267.833C32.5977 269.389 33.431 271.333 33.431 273.667C33.431 276 32.5977 278 30.931 279.667C29.3754 281.222 27.431 282 25.0977 282C22.7643 282 20.7643 281.222 19.0977 279.667ZM19.0977 296.333C17.5421 294.667 16.7643 292.667 16.7643 290.333C16.7643 288 17.5421 286.056 19.0977 284.5C20.7643 282.833 22.7643 282 25.0977 282C27.431 282 29.3754 282.833 30.931 284.5C32.5977 286.056 33.431 288 33.431 290.333C33.431 292.667 32.5977 294.667 30.931 296.333C29.3754 297.889 27.431 298.667 25.0977 298.667C22.7643 298.667 20.7643 297.889 19.0977 296.333ZM2.43099 296.333C0.875434 294.667 0.0976562 292.667 0.0976562 290.333C0.0976562 288 0.875434 286.056 2.43099 284.5C4.09766 282.833 6.09766 282 8.43099 282C10.7643 282 12.7088 282.833 14.2643 284.5C15.931 286.056 16.7643 288 16.7643 290.333C16.7643 292.667 15.931 294.667 14.2643 296.333C12.7088 297.889 10.7643 298.667 8.43099 298.667C6.09766 298.667 4.09766 297.889 2.43099 296.333ZM2.43099 313C0.875434 311.333 0.0976562 309.333 0.0976562 307C0.0976562 304.667 0.875434 302.722 2.43099 301.167C4.09766 299.5 6.09766 298.667 8.43099 298.667C10.7643 298.667 12.7088 299.5 14.2643 301.167C15.931 302.722 16.7643 304.667 16.7643 307C16.7643 309.333 15.931 311.333 14.2643 313C12.7088 314.556 10.7643 315.333 8.43099 315.333C6.09766 315.333 4.09766 314.556 2.43099 313ZM19.0977 313C17.5421 311.333 16.7643 309.333 16.7643 307C16.7643 304.667 17.5421 302.722 19.0977 301.167C20.7643 299.5 22.7643 298.667 25.0977 298.667C27.431 298.667 29.3754 299.5 30.931 301.167C32.5977 302.722 33.431 304.667 33.431 307C33.431 309.333 32.5977 311.333 30.931 313C29.3754 314.556 27.431 315.333 25.0977 315.333C22.7643 315.333 20.7643 314.556 19.0977 313ZM19.0977 329.667C17.5421 328 16.7643 326 16.7643 323.667C16.7643 321.333 17.5421 319.389 19.0977 317.833C20.7643 316.167 22.7643 315.333 25.0977 315.333C27.431 315.333 29.3754 316.167 30.931 317.833C32.5977 319.389 33.431 321.333 33.431 323.667C33.431 326 32.5977 328 30.931 329.667C29.3754 331.222 27.431 332 25.0977 332C22.7643 332 20.7643 331.222 19.0977 329.667ZM2.43099 329.667C0.875434 328 0.0976562 326 0.0976562 323.667C0.0976562 321.333 0.875434 319.389 2.43099 317.833C4.09766 316.167 6.09766 315.333 8.43099 315.333C10.7643 315.333 12.7088 316.167 14.2643 317.833C15.931 319.389 16.7643 321.333 16.7643 323.667C16.7643 326 15.931 328 14.2643 329.667C12.7088 331.222 10.7643 332 8.43099 332C6.09766 332 4.09766 331.222 2.43099 329.667ZM35.7643 279.667C34.2088 278 33.431 276 33.431 273.667C33.431 271.333 34.2088 269.389 35.7643 267.833C37.431 266.167 39.431 265.333 41.7643 265.333C44.0977 265.333 46.0421 266.167 47.5977 267.833C49.2643 269.389 50.0977 271.333 50.0977 273.667C50.0977 276 49.2643 278 47.5977 279.667C46.0421 281.222 44.0977 282 41.7643 282C39.431 282 37.431 281.222 35.7643 279.667ZM52.431 279.667C50.8754 278 50.0977 276 50.0977 273.667C50.0977 271.333 50.8754 269.389 52.431 267.833C54.0977 266.167 56.0977 265.333 58.431 265.333C60.7643 265.333 62.7088 266.167 64.2643 267.833C65.931 269.389 66.7643 271.333 66.7643 273.667C66.7643 276 65.931 278 64.2643 279.667C62.7088 281.222 60.7643 282 58.431 282C56.0977 282 54.0977 281.222 52.431 279.667ZM85.7643 279.667C84.2088 278 83.431 276 83.431 273.667C83.431 271.333 84.2088 269.389 85.7643 267.833C87.431 266.167 89.431 265.333 91.7643 265.333C94.0977 265.333 96.0421 266.167 97.5977 267.833C99.2643 269.389 100.098 271.333 100.098 273.667C100.098 276 99.2643 278 97.5977 279.667C96.0421 281.222 94.0977 282 91.7643 282C89.431 282 87.431 281.222 85.7643 279.667ZM69.0977 263C67.5421 261.333 66.7643 259.333 66.7643 257C66.7643 254.667 67.5421 252.722 69.0977 251.167C70.7643 249.5 72.7643 248.667 75.0977 248.667C77.431 248.667 79.3754 249.5 80.931 251.167C82.5977 252.722 83.431 254.667 83.431 257C83.431 259.333 82.5977 261.333 80.931 263C79.3754 264.556 77.431 265.333 75.0977 265.333C72.7643 265.333 70.7643 264.556 69.0977 263ZM52.431 263C50.8754 261.333 50.0977 259.333 50.0977 257C50.0977 254.667 50.8754 252.722 52.431 251.167C54.0977 249.5 56.0977 248.667 58.431 248.667C60.7643 248.667 62.7088 249.5 64.2643 251.167C65.931 252.722 66.7643 254.667 66.7643 257C66.7643 259.333 65.931 261.333 64.2643 263C62.7088 264.556 60.7643 265.333 58.431 265.333C56.0977 265.333 54.0977 264.556 52.431 263ZM35.7643 263C34.2088 261.333 33.431 259.333 33.431 257C33.431 254.667 34.2088 252.722 35.7643 251.167C37.431 249.5 39.431 248.667 41.7643 248.667C44.0977 248.667 46.0421 249.5 47.5977 251.167C49.2643 252.722 50.0977 254.667 50.0977 257C50.0977 259.333 49.2643 261.333 47.5977 263C46.0421 264.556 44.0977 265.333 41.7643 265.333C39.431 265.333 37.431 264.556 35.7643 263ZM19.0977 263C17.5421 261.333 16.7643 259.333 16.7643 257C16.7643 254.667 17.5421 252.722 19.0977 251.167C20.7643 249.5 22.7643 248.667 25.0977 248.667C27.431 248.667 29.3754 249.5 30.931 251.167C32.5977 252.722 33.431 254.667 33.431 257C33.431 259.333 32.5977 261.333 30.931 263C29.3754 264.556 27.431 265.333 25.0977 265.333C22.7643 265.333 20.7643 264.556 19.0977 263ZM119.033 229.667C117.477 228 116.699 226 116.699 223.667C116.699 221.333 117.477 219.389 119.033 217.833C120.699 216.167 122.699 215.333 125.033 215.333C127.366 215.333 129.31 216.167 130.866 217.833C132.533 219.389 133.366 221.333 133.366 223.667C133.366 226 132.533 228 130.866 229.667C129.31 231.222 127.366 232 125.033 232C122.699 232 120.699 231.222 119.033 229.667ZM119.033 246.333C117.477 244.667 116.699 242.667 116.699 240.333C116.699 238 117.477 236.056 119.033 234.5C120.699 232.833 122.699 232 125.033 232C127.366 232 129.31 232.833 130.866 234.5C132.533 236.056 133.366 238 133.366 240.333C133.366 242.667 132.533 244.667 130.866 246.333C129.31 247.889 127.366 248.667 125.033 248.667C122.699 248.667 120.699 247.889 119.033 246.333ZM119.033 263C117.477 261.333 116.699 259.333 116.699 257C116.699 254.667 117.477 252.722 119.033 251.167C120.699 249.5 122.699 248.667 125.033 248.667C127.366 248.667 129.31 249.5 130.866 251.167C132.533 252.722 133.366 254.667 133.366 257C133.366 259.333 132.533 261.333 130.866 263C129.31 264.556 127.366 265.333 125.033 265.333C122.699 265.333 120.699 264.556 119.033 263ZM119.033 279.667C117.477 278 116.699 276 116.699 273.667C116.699 271.333 117.477 269.389 119.033 267.833C120.699 266.167 122.699 265.333 125.033 265.333C127.366 265.333 129.31 266.167 130.866 267.833C132.533 269.389 133.366 271.333 133.366 273.667C133.366 276 132.533 278 130.866 279.667C129.31 281.222 127.366 282 125.033 282C122.699 282 120.699 281.222 119.033 279.667ZM119.033 296.333C117.477 294.667 116.699 292.667 116.699 290.333C116.699 288 117.477 286.056 119.033 284.5C120.699 282.833 122.699 282 125.033 282C127.366 282 129.31 282.833 130.866 284.5C132.533 286.056 133.366 288 133.366 290.333C133.366 292.667 132.533 294.667 130.866 296.333C129.31 297.889 127.366 298.667 125.033 298.667C122.699 298.667 120.699 297.889 119.033 296.333ZM119.033 313C117.477 311.333 116.699 309.333 116.699 307C116.699 304.667 117.477 302.722 119.033 301.167C120.699 299.5 122.699 298.667 125.033 298.667C127.366 298.667 129.31 299.5 130.866 301.167C132.533 302.722 133.366 304.667 133.366 307C133.366 309.333 132.533 311.333 130.866 313C129.31 314.556 127.366 315.333 125.033 315.333C122.699 315.333 120.699 314.556 119.033 313ZM119.033 329.667C117.477 328 116.699 326 116.699 323.667C116.699 321.333 117.477 319.389 119.033 317.833C120.699 316.167 122.699 315.333 125.033 315.333C127.366 315.333 129.31 316.167 130.866 317.833C132.533 319.389 133.366 321.333 133.366 323.667C133.366 326 132.533 328 130.866 329.667C129.31 331.222 127.366 332 125.033 332C122.699 332 120.699 331.222 119.033 329.667ZM119.033 346.333C117.477 344.667 116.699 342.667 116.699 340.333C116.699 338 117.477 336.056 119.033 334.5C120.699 332.833 122.699 332 125.033 332C127.366 332 129.31 332.833 130.866 334.5C132.533 336.056 133.366 338 133.366 340.333C133.366 342.667 132.533 344.667 130.866 346.333C129.31 347.889 127.366 348.667 125.033 348.667C122.699 348.667 120.699 347.889 119.033 346.333ZM119.033 363C117.477 361.333 116.699 359.333 116.699 357C116.699 354.667 117.477 352.722 119.033 351.167C120.699 349.5 122.699 348.667 125.033 348.667C127.366 348.667 129.31 349.5 130.866 351.167C132.533 352.722 133.366 354.667 133.366 357C133.366 359.333 132.533 361.333 130.866 363C129.31 364.556 127.366 365.333 125.033 365.333C122.699 365.333 120.699 364.556 119.033 363ZM119.033 379.667C117.477 378 116.699 376 116.699 373.667C116.699 371.333 117.477 369.389 119.033 367.833C120.699 366.167 122.699 365.333 125.033 365.333C127.366 365.333 129.31 366.167 130.866 367.833C132.533 369.389 133.366 371.333 133.366 373.667C133.366 376 132.533 378 130.866 379.667C129.31 381.222 127.366 382 125.033 382C122.699 382 120.699 381.222 119.033 379.667ZM135.699 379.667C134.144 378 133.366 376 133.366 373.667C133.366 371.333 134.144 369.389 135.699 367.833C137.366 366.167 139.366 365.333 141.699 365.333C144.033 365.333 145.977 366.167 147.533 367.833C149.199 369.389 150.033 371.333 150.033 373.667C150.033 376 149.199 378 147.533 379.667C145.977 381.222 144.033 382 141.699 382C139.366 382 137.366 381.222 135.699 379.667ZM135.699 363C134.144 361.333 133.366 359.333 133.366 357C133.366 354.667 134.144 352.722 135.699 351.167C137.366 349.5 139.366 348.667 141.699 348.667C144.033 348.667 145.977 349.5 147.533 351.167C149.199 352.722 150.033 354.667 150.033 357C150.033 359.333 149.199 361.333 147.533 363C145.977 364.556 144.033 365.333 141.699 365.333C139.366 365.333 137.366 364.556 135.699 363ZM135.699 346.333C134.144 344.667 133.366 342.667 133.366 340.333C133.366 338 134.144 336.056 135.699 334.5C137.366 332.833 139.366 332 141.699 332C144.033 332 145.977 332.833 147.533 334.5C149.199 336.056 150.033 338 150.033 340.333C150.033 342.667 149.199 344.667 147.533 346.333C145.977 347.889 144.033 348.667 141.699 348.667C139.366 348.667 137.366 347.889 135.699 346.333ZM135.699 329.667C134.144 328 133.366 326 133.366 323.667C133.366 321.333 134.144 319.389 135.699 317.833C137.366 316.167 139.366 315.333 141.699 315.333C144.033 315.333 145.977 316.167 147.533 317.833C149.199 319.389 150.033 321.333 150.033 323.667C150.033 326 149.199 328 147.533 329.667C145.977 331.222 144.033 332 141.699 332C139.366 332 137.366 331.222 135.699 329.667ZM135.699 313C134.144 311.333 133.366 309.333 133.366 307C133.366 304.667 134.144 302.722 135.699 301.167C137.366 299.5 139.366 298.667 141.699 298.667C144.033 298.667 145.977 299.5 147.533 301.167C149.199 302.722 150.033 304.667 150.033 307C150.033 309.333 149.199 311.333 147.533 313C145.977 314.556 144.033 315.333 141.699 315.333C139.366 315.333 137.366 314.556 135.699 313ZM135.699 296.333C134.144 294.667 133.366 292.667 133.366 290.333C133.366 288 134.144 286.056 135.699 284.5C137.366 282.833 139.366 282 141.699 282C144.033 282 145.977 282.833 147.533 284.5C149.199 286.056 150.033 288 150.033 290.333C150.033 292.667 149.199 294.667 147.533 296.333C145.977 297.889 144.033 298.667 141.699 298.667C139.366 298.667 137.366 297.889 135.699 296.333ZM135.699 279.667C134.144 278 133.366 276 133.366 273.667C133.366 271.333 134.144 269.389 135.699 267.833C137.366 266.167 139.366 265.333 141.699 265.333C144.033 265.333 145.977 266.167 147.533 267.833C149.199 269.389 150.033 271.333 150.033 273.667C150.033 276 149.199 278 147.533 279.667C145.977 281.222 144.033 282 141.699 282C139.366 282 137.366 281.222 135.699 279.667ZM135.699 263C134.144 261.333 133.366 259.333 133.366 257C133.366 254.667 134.144 252.722 135.699 251.167C137.366 249.5 139.366 248.667 141.699 248.667C144.033 248.667 145.977 249.5 147.533 251.167C149.199 252.722 150.033 254.667 150.033 257C150.033 259.333 149.199 261.333 147.533 263C145.977 264.556 144.033 265.333 141.699 265.333C139.366 265.333 137.366 264.556 135.699 263ZM135.699 246.333C134.144 244.667 133.366 242.667 133.366 240.333C133.366 238 134.144 236.056 135.699 234.5C137.366 232.833 139.366 232 141.699 232C144.033 232 145.977 232.833 147.533 234.5C149.199 236.056 150.033 238 150.033 240.333C150.033 242.667 149.199 244.667 147.533 246.333C145.977 247.889 144.033 248.667 141.699 248.667C139.366 248.667 137.366 247.889 135.699 246.333ZM135.699 229.667C134.144 228 133.366 226 133.366 223.667C133.366 221.333 134.144 219.389 135.699 217.833C137.366 216.167 139.366 215.333 141.699 215.333C144.033 215.333 145.977 216.167 147.533 217.833C149.199 219.389 150.033 221.333 150.033 223.667C150.033 226 149.199 228 147.533 229.667C145.977 231.222 144.033 232 141.699 232C139.366 232 137.366 231.222 135.699 229.667ZM185.699 379.667C184.144 378 183.366 376 183.366 373.667C183.366 371.333 184.144 369.389 185.699 367.833C187.366 366.167 189.366 365.333 191.699 365.333C194.033 365.333 195.977 366.167 197.533 367.833C199.199 369.389 200.033 371.333 200.033 373.667C200.033 376 199.199 378 197.533 379.667C195.977 381.222 194.033 382 191.699 382C189.366 382 187.366 381.222 185.699 379.667ZM202.366 379.667C200.81 378 200.033 376 200.033 373.667C200.033 371.333 200.81 369.389 202.366 367.833C204.033 366.167 206.033 365.333 208.366 365.333C210.699 365.333 212.644 366.167 214.199 367.833C215.866 369.389 216.699 371.333 216.699 373.667C216.699 376 215.866 378 214.199 379.667C212.644 381.222 210.699 382 208.366 382C206.033 382 204.033 381.222 202.366 379.667ZM219.033 379.667C217.477 378 216.699 376 216.699 373.667C216.699 371.333 217.477 369.389 219.033 367.833C220.699 366.167 222.699 365.333 225.033 365.333C227.366 365.333 229.31 366.167 230.866 367.833C232.533 369.389 233.366 371.333 233.366 373.667C233.366 376 232.533 378 230.866 379.667C229.31 381.222 227.366 382 225.033 382C222.699 382 220.699 381.222 219.033 379.667ZM235.699 379.667C234.144 378 233.366 376 233.366 373.667C233.366 371.333 234.144 369.389 235.699 367.833C237.366 366.167 239.366 365.333 241.699 365.333C244.033 365.333 245.977 366.167 247.533 367.833C249.199 369.389 250.033 371.333 250.033 373.667C250.033 376 249.199 378 247.533 379.667C245.977 381.222 244.033 382 241.699 382C239.366 382 237.366 381.222 235.699 379.667ZM252.366 363C250.81 361.333 250.033 359.333 250.033 357C250.033 354.667 250.81 352.722 252.366 351.167C254.033 349.5 256.033 348.667 258.366 348.667C260.699 348.667 262.644 349.5 264.199 351.167C265.866 352.722 266.699 354.667 266.699 357C266.699 359.333 265.866 361.333 264.199 363C262.644 364.556 260.699 365.333 258.366 365.333C256.033 365.333 254.033 364.556 252.366 363ZM235.699 363C234.144 361.333 233.366 359.333 233.366 357C233.366 354.667 234.144 352.722 235.699 351.167C237.366 349.5 239.366 348.667 241.699 348.667C244.033 348.667 245.977 349.5 247.533 351.167C249.199 352.722 250.033 354.667 250.033 357C250.033 359.333 249.199 361.333 247.533 363C245.977 364.556 244.033 365.333 241.699 365.333C239.366 365.333 237.366 364.556 235.699 363ZM219.033 363C217.477 361.333 216.699 359.333 216.699 357C216.699 354.667 217.477 352.722 219.033 351.167C220.699 349.5 222.699 348.667 225.033 348.667C227.366 348.667 229.31 349.5 230.866 351.167C232.533 352.722 233.366 354.667 233.366 357C233.366 359.333 232.533 361.333 230.866 363C229.31 364.556 227.366 365.333 225.033 365.333C222.699 365.333 220.699 364.556 219.033 363ZM202.366 363C200.81 361.333 200.033 359.333 200.033 357C200.033 354.667 200.81 352.722 202.366 351.167C204.033 349.5 206.033 348.667 208.366 348.667C210.699 348.667 212.644 349.5 214.199 351.167C215.866 352.722 216.699 354.667 216.699 357C216.699 359.333 215.866 361.333 214.199 363C212.644 364.556 210.699 365.333 208.366 365.333C206.033 365.333 204.033 364.556 202.366 363ZM185.699 363C184.144 361.333 183.366 359.333 183.366 357C183.366 354.667 184.144 352.722 185.699 351.167C187.366 349.5 189.366 348.667 191.699 348.667C194.033 348.667 195.977 349.5 197.533 351.167C199.199 352.722 200.033 354.667 200.033 357C200.033 359.333 199.199 361.333 197.533 363C195.977 364.556 194.033 365.333 191.699 365.333C189.366 365.333 187.366 364.556 185.699 363ZM169.033 363C167.477 361.333 166.699 359.333 166.699 357C166.699 354.667 167.477 352.722 169.033 351.167C170.699 349.5 172.699 348.667 175.033 348.667C177.366 348.667 179.31 349.5 180.866 351.167C182.533 352.722 183.366 354.667 183.366 357C183.366 359.333 182.533 361.333 180.866 363C179.31 364.556 177.366 365.333 175.033 365.333C172.699 365.333 170.699 364.556 169.033 363ZM169.033 346.333C167.477 344.667 166.699 342.667 166.699 340.333C166.699 338 167.477 336.056 169.033 334.5C170.699 332.833 172.699 332 175.033 332C177.366 332 179.31 332.833 180.866 334.5C182.533 336.056 183.366 338 183.366 340.333C183.366 342.667 182.533 344.667 180.866 346.333C179.31 347.889 177.366 348.667 175.033 348.667C172.699 348.667 170.699 347.889 169.033 346.333ZM169.033 329.667C167.477 328 166.699 326 166.699 323.667C166.699 321.333 167.477 319.389 169.033 317.833C170.699 316.167 172.699 315.333 175.033 315.333C177.366 315.333 179.31 316.167 180.866 317.833C182.533 319.389 183.366 321.333 183.366 323.667C183.366 326 182.533 328 180.866 329.667C179.31 331.222 177.366 332 175.033 332C172.699 332 170.699 331.222 169.033 329.667ZM169.033 313C167.477 311.333 166.699 309.333 166.699 307C166.699 304.667 167.477 302.722 169.033 301.167C170.699 299.5 172.699 298.667 175.033 298.667C177.366 298.667 179.31 299.5 180.866 301.167C182.533 302.722 183.366 304.667 183.366 307C183.366 309.333 182.533 311.333 180.866 313C179.31 314.556 177.366 315.333 175.033 315.333C172.699 315.333 170.699 314.556 169.033 313ZM169.033 296.333C167.477 294.667 166.699 292.667 166.699 290.333C166.699 288 167.477 286.056 169.033 284.5C170.699 282.833 172.699 282 175.033 282C177.366 282 179.31 282.833 180.866 284.5C182.533 286.056 183.366 288 183.366 290.333C183.366 292.667 182.533 294.667 180.866 296.333C179.31 297.889 177.366 298.667 175.033 298.667C172.699 298.667 170.699 297.889 169.033 296.333ZM169.033 279.667C167.477 278 166.699 276 166.699 273.667C166.699 271.333 167.477 269.389 169.033 267.833C170.699 266.167 172.699 265.333 175.033 265.333C177.366 265.333 179.31 266.167 180.866 267.833C182.533 269.389 183.366 271.333 183.366 273.667C183.366 276 182.533 278 180.866 279.667C179.31 281.222 177.366 282 175.033 282C172.699 282 170.699 281.222 169.033 279.667ZM169.033 263C167.477 261.333 166.699 259.333 166.699 257C166.699 254.667 167.477 252.722 169.033 251.167C170.699 249.5 172.699 248.667 175.033 248.667C177.366 248.667 179.31 249.5 180.866 251.167C182.533 252.722 183.366 254.667 183.366 257C183.366 259.333 182.533 261.333 180.866 263C179.31 264.556 177.366 265.333 175.033 265.333C172.699 265.333 170.699 264.556 169.033 263ZM185.699 263C184.144 261.333 183.366 259.333 183.366 257C183.366 254.667 184.144 252.722 185.699 251.167C187.366 249.5 189.366 248.667 191.699 248.667C194.033 248.667 195.977 249.5 197.533 251.167C199.199 252.722 200.033 254.667 200.033 257C200.033 259.333 199.199 261.333 197.533 263C195.977 264.556 194.033 265.333 191.699 265.333C189.366 265.333 187.366 264.556 185.699 263ZM185.699 279.667C184.144 278 183.366 276 183.366 273.667C183.366 271.333 184.144 269.389 185.699 267.833C187.366 266.167 189.366 265.333 191.699 265.333C194.033 265.333 195.977 266.167 197.533 267.833C199.199 269.389 200.033 271.333 200.033 273.667C200.033 276 199.199 278 197.533 279.667C195.977 281.222 194.033 282 191.699 282C189.366 282 187.366 281.222 185.699 279.667ZM185.699 296.333C184.144 294.667 183.366 292.667 183.366 290.333C183.366 288 184.144 286.056 185.699 284.5C187.366 282.833 189.366 282 191.699 282C194.033 282 195.977 282.833 197.533 284.5C199.199 286.056 200.033 288 200.033 290.333C200.033 292.667 199.199 294.667 197.533 296.333C195.977 297.889 194.033 298.667 191.699 298.667C189.366 298.667 187.366 297.889 185.699 296.333ZM185.699 313C184.144 311.333 183.366 309.333 183.366 307C183.366 304.667 184.144 302.722 185.699 301.167C187.366 299.5 189.366 298.667 191.699 298.667C194.033 298.667 195.977 299.5 197.533 301.167C199.199 302.722 200.033 304.667 200.033 307C200.033 309.333 199.199 311.333 197.533 313C195.977 314.556 194.033 315.333 191.699 315.333C189.366 315.333 187.366 314.556 185.699 313ZM185.699 329.667C184.144 328 183.366 326 183.366 323.667C183.366 321.333 184.144 319.389 185.699 317.833C187.366 316.167 189.366 315.333 191.699 315.333C194.033 315.333 195.977 316.167 197.533 317.833C199.199 319.389 200.033 321.333 200.033 323.667C200.033 326 199.199 328 197.533 329.667C195.977 331.222 194.033 332 191.699 332C189.366 332 187.366 331.222 185.699 329.667ZM185.699 346.333C184.144 344.667 183.366 342.667 183.366 340.333C183.366 338 184.144 336.056 185.699 334.5C187.366 332.833 189.366 332 191.699 332C194.033 332 195.977 332.833 197.533 334.5C199.199 336.056 200.033 338 200.033 340.333C200.033 342.667 199.199 344.667 197.533 346.333C195.977 347.889 194.033 348.667 191.699 348.667C189.366 348.667 187.366 347.889 185.699 346.333ZM235.699 346.333C234.144 344.667 233.366 342.667 233.366 340.333C233.366 338 234.144 336.056 235.699 334.5C237.366 332.833 239.366 332 241.699 332C244.033 332 245.977 332.833 247.533 334.5C249.199 336.056 250.033 338 250.033 340.333C250.033 342.667 249.199 344.667 247.533 346.333C245.977 347.889 244.033 348.667 241.699 348.667C239.366 348.667 237.366 347.889 235.699 346.333ZM235.699 329.667C234.144 328 233.366 326 233.366 323.667C233.366 321.333 234.144 319.389 235.699 317.833C237.366 316.167 239.366 315.333 241.699 315.333C244.033 315.333 245.977 316.167 247.533 317.833C249.199 319.389 250.033 321.333 250.033 323.667C250.033 326 249.199 328 247.533 329.667C245.977 331.222 244.033 332 241.699 332C239.366 332 237.366 331.222 235.699 329.667ZM235.699 313C234.144 311.333 233.366 309.333 233.366 307C233.366 304.667 234.144 302.722 235.699 301.167C237.366 299.5 239.366 298.667 241.699 298.667C244.033 298.667 245.977 299.5 247.533 301.167C249.199 302.722 250.033 304.667 250.033 307C250.033 309.333 249.199 311.333 247.533 313C245.977 314.556 244.033 315.333 241.699 315.333C239.366 315.333 237.366 314.556 235.699 313ZM235.699 296.333C234.144 294.667 233.366 292.667 233.366 290.333C233.366 288 234.144 286.056 235.699 284.5C237.366 282.833 239.366 282 241.699 282C244.033 282 245.977 282.833 247.533 284.5C249.199 286.056 250.033 288 250.033 290.333C250.033 292.667 249.199 294.667 247.533 296.333C245.977 297.889 244.033 298.667 241.699 298.667C239.366 298.667 237.366 297.889 235.699 296.333ZM235.699 279.667C234.144 278 233.366 276 233.366 273.667C233.366 271.333 234.144 269.389 235.699 267.833C237.366 266.167 239.366 265.333 241.699 265.333C244.033 265.333 245.977 266.167 247.533 267.833C249.199 269.389 250.033 271.333 250.033 273.667C250.033 276 249.199 278 247.533 279.667C245.977 281.222 244.033 282 241.699 282C239.366 282 237.366 281.222 235.699 279.667ZM235.699 263C234.144 261.333 233.366 259.333 233.366 257C233.366 254.667 234.144 252.722 235.699 251.167C237.366 249.5 239.366 248.667 241.699 248.667C244.033 248.667 245.977 249.5 247.533 251.167C249.199 252.722 250.033 254.667 250.033 257C250.033 259.333 249.199 261.333 247.533 263C245.977 264.556 244.033 265.333 241.699 265.333C239.366 265.333 237.366 264.556 235.699 263ZM252.366 263C250.81 261.333 250.033 259.333 250.033 257C250.033 254.667 250.81 252.722 252.366 251.167C254.033 249.5 256.033 248.667 258.366 248.667C260.699 248.667 262.644 249.5 264.199 251.167C265.866 252.722 266.699 254.667 266.699 257C266.699 259.333 265.866 261.333 264.199 263C262.644 264.556 260.699 265.333 258.366 265.333C256.033 265.333 254.033 264.556 252.366 263ZM252.366 279.667C250.81 278 250.033 276 250.033 273.667C250.033 271.333 250.81 269.389 252.366 267.833C254.033 266.167 256.033 265.333 258.366 265.333C260.699 265.333 262.644 266.167 264.199 267.833C265.866 269.389 266.699 271.333 266.699 273.667C266.699 276 265.866 278 264.199 279.667C262.644 281.222 260.699 282 258.366 282C256.033 282 254.033 281.222 252.366 279.667ZM252.366 296.333C250.81 294.667 250.033 292.667 250.033 290.333C250.033 288 250.81 286.056 252.366 284.5C254.033 282.833 256.033 282 258.366 282C260.699 282 262.644 282.833 264.199 284.5C265.866 286.056 266.699 288 266.699 290.333C266.699 292.667 265.866 294.667 264.199 296.333C262.644 297.889 260.699 298.667 258.366 298.667C256.033 298.667 254.033 297.889 252.366 296.333ZM252.366 313C250.81 311.333 250.033 309.333 250.033 307C250.033 304.667 250.81 302.722 252.366 301.167C254.033 299.5 256.033 298.667 258.366 298.667C260.699 298.667 262.644 299.5 264.199 301.167C265.866 302.722 266.699 304.667 266.699 307C266.699 309.333 265.866 311.333 264.199 313C262.644 314.556 260.699 315.333 258.366 315.333C256.033 315.333 254.033 314.556 252.366 313ZM252.366 329.667C250.81 328 250.033 326 250.033 323.667C250.033 321.333 250.81 319.389 252.366 317.833C254.033 316.167 256.033 315.333 258.366 315.333C260.699 315.333 262.644 316.167 264.199 317.833C265.866 319.389 266.699 321.333 266.699 323.667C266.699 326 265.866 328 264.199 329.667C262.644 331.222 260.699 332 258.366 332C256.033 332 254.033 331.222 252.366 329.667ZM252.366 346.333C250.81 344.667 250.033 342.667 250.033 340.333C250.033 338 250.81 336.056 252.366 334.5C254.033 332.833 256.033 332 258.366 332C260.699 332 262.644 332.833 264.199 334.5C265.866 336.056 266.699 338 266.699 340.333C266.699 342.667 265.866 344.667 264.199 346.333C262.644 347.889 260.699 348.667 258.366 348.667C256.033 348.667 254.033 347.889 252.366 346.333ZM302.301 379.667C300.745 378 299.967 376 299.967 373.667C299.967 371.333 300.745 369.389 302.301 367.833C303.967 366.167 305.967 365.333 308.301 365.333C310.634 365.333 312.579 366.167 314.134 367.833C315.801 369.389 316.634 371.333 316.634 373.667C316.634 376 315.801 378 314.134 379.667C312.579 381.222 310.634 382 308.301 382C305.967 382 303.967 381.222 302.301 379.667ZM318.967 379.667C317.412 378 316.634 376 316.634 373.667C316.634 371.333 317.412 369.389 318.967 367.833C320.634 366.167 322.634 365.333 324.967 365.333C327.301 365.333 329.245 366.167 330.801 367.833C332.467 369.389 333.301 371.333 333.301 373.667C333.301 376 332.467 378 330.801 379.667C329.245 381.222 327.301 382 324.967 382C322.634 382 320.634 381.222 318.967 379.667ZM335.634 379.667C334.079 378 333.301 376 333.301 373.667C333.301 371.333 334.079 369.389 335.634 367.833C337.301 366.167 339.301 365.333 341.634 365.333C343.967 365.333 345.912 366.167 347.467 367.833C349.134 369.389 349.967 371.333 349.967 373.667C349.967 376 349.134 378 347.467 379.667C345.912 381.222 343.967 382 341.634 382C339.301 382 337.301 381.222 335.634 379.667ZM352.301 379.667C350.745 378 349.967 376 349.967 373.667C349.967 371.333 350.745 369.389 352.301 367.833C353.967 366.167 355.967 365.333 358.301 365.333C360.634 365.333 362.579 366.167 364.134 367.833C365.801 369.389 366.634 371.333 366.634 373.667C366.634 376 365.801 378 364.134 379.667C362.579 381.222 360.634 382 358.301 382C355.967 382 353.967 381.222 352.301 379.667ZM368.967 363C367.412 361.333 366.634 359.333 366.634 357C366.634 354.667 367.412 352.722 368.967 351.167C370.634 349.5 372.634 348.667 374.967 348.667C377.301 348.667 379.245 349.5 380.801 351.167C382.467 352.722 383.301 354.667 383.301 357C383.301 359.333 382.467 361.333 380.801 363C379.245 364.556 377.301 365.333 374.967 365.333C372.634 365.333 370.634 364.556 368.967 363ZM285.634 379.667C284.079 378 283.301 376 283.301 373.667C283.301 371.333 284.079 369.389 285.634 367.833C287.301 366.167 289.301 365.333 291.634 365.333C293.967 365.333 295.912 366.167 297.467 367.833C299.134 369.389 299.967 371.333 299.967 373.667C299.967 376 299.134 378 297.467 379.667C295.912 381.222 293.967 382 291.634 382C289.301 382 287.301 381.222 285.634 379.667ZM335.634 363C334.079 361.333 333.301 359.333 333.301 357C333.301 354.667 334.079 352.722 335.634 351.167C337.301 349.5 339.301 348.667 341.634 348.667C343.967 348.667 345.912 349.5 347.467 351.167C349.134 352.722 349.967 354.667 349.967 357C349.967 359.333 349.134 361.333 347.467 363C345.912 364.556 343.967 365.333 341.634 365.333C339.301 365.333 337.301 364.556 335.634 363ZM318.967 363C317.412 361.333 316.634 359.333 316.634 357C316.634 354.667 317.412 352.722 318.967 351.167C320.634 349.5 322.634 348.667 324.967 348.667C327.301 348.667 329.245 349.5 330.801 351.167C332.467 352.722 333.301 354.667 333.301 357C333.301 359.333 332.467 361.333 330.801 363C329.245 364.556 327.301 365.333 324.967 365.333C322.634 365.333 320.634 364.556 318.967 363ZM302.301 363C300.745 361.333 299.967 359.333 299.967 357C299.967 354.667 300.745 352.722 302.301 351.167C303.967 349.5 305.967 348.667 308.301 348.667C310.634 348.667 312.579 349.5 314.134 351.167C315.801 352.722 316.634 354.667 316.634 357C316.634 359.333 315.801 361.333 314.134 363C312.579 364.556 310.634 365.333 308.301 365.333C305.967 365.333 303.967 364.556 302.301 363ZM285.634 363C284.079 361.333 283.301 359.333 283.301 357C283.301 354.667 284.079 352.722 285.634 351.167C287.301 349.5 289.301 348.667 291.634 348.667C293.967 348.667 295.912 349.5 297.467 351.167C299.134 352.722 299.967 354.667 299.967 357C299.967 359.333 299.134 361.333 297.467 363C295.912 364.556 293.967 365.333 291.634 365.333C289.301 365.333 287.301 364.556 285.634 363ZM285.634 346.333C284.079 344.667 283.301 342.667 283.301 340.333C283.301 338 284.079 336.056 285.634 334.5C287.301 332.833 289.301 332 291.634 332C293.967 332 295.912 332.833 297.467 334.5C299.134 336.056 299.967 338 299.967 340.333C299.967 342.667 299.134 344.667 297.467 346.333C295.912 347.889 293.967 348.667 291.634 348.667C289.301 348.667 287.301 347.889 285.634 346.333ZM302.301 346.333C300.745 344.667 299.967 342.667 299.967 340.333C299.967 338 300.745 336.056 302.301 334.5C303.967 332.833 305.967 332 308.301 332C310.634 332 312.579 332.833 314.134 334.5C315.801 336.056 316.634 338 316.634 340.333C316.634 342.667 315.801 344.667 314.134 346.333C312.579 347.889 310.634 348.667 308.301 348.667C305.967 348.667 303.967 347.889 302.301 346.333ZM352.301 346.333C350.745 344.667 349.967 342.667 349.967 340.333C349.967 338 350.745 336.056 352.301 334.5C353.967 332.833 355.967 332 358.301 332C360.634 332 362.579 332.833 364.134 334.5C365.801 336.056 366.634 338 366.634 340.333C366.634 342.667 365.801 344.667 364.134 346.333C362.579 347.889 360.634 348.667 358.301 348.667C355.967 348.667 353.967 347.889 352.301 346.333ZM352.301 363C350.745 361.333 349.967 359.333 349.967 357C349.967 354.667 350.745 352.722 352.301 351.167C353.967 349.5 355.967 348.667 358.301 348.667C360.634 348.667 362.579 349.5 364.134 351.167C365.801 352.722 366.634 354.667 366.634 357C366.634 359.333 365.801 361.333 364.134 363C362.579 364.556 360.634 365.333 358.301 365.333C355.967 365.333 353.967 364.556 352.301 363ZM368.967 346.333C367.412 344.667 366.634 342.667 366.634 340.333C366.634 338 367.412 336.056 368.967 334.5C370.634 332.833 372.634 332 374.967 332C377.301 332 379.245 332.833 380.801 334.5C382.467 336.056 383.301 338 383.301 340.333C383.301 342.667 382.467 344.667 380.801 346.333C379.245 347.889 377.301 348.667 374.967 348.667C372.634 348.667 370.634 347.889 368.967 346.333ZM368.967 329.667C367.412 328 366.634 326 366.634 323.667C366.634 321.333 367.412 319.389 368.967 317.833C370.634 316.167 372.634 315.333 374.967 315.333C377.301 315.333 379.245 316.167 380.801 317.833C382.467 319.389 383.301 321.333 383.301 323.667C383.301 326 382.467 328 380.801 329.667C379.245 331.222 377.301 332 374.967 332C372.634 332 370.634 331.222 368.967 329.667ZM352.301 329.667C350.745 328 349.967 326 349.967 323.667C349.967 321.333 350.745 319.389 352.301 317.833C353.967 316.167 355.967 315.333 358.301 315.333C360.634 315.333 362.579 316.167 364.134 317.833C365.801 319.389 366.634 321.333 366.634 323.667C366.634 326 365.801 328 364.134 329.667C362.579 331.222 360.634 332 358.301 332C355.967 332 353.967 331.222 352.301 329.667ZM352.301 313C350.745 311.333 349.967 309.333 349.967 307C349.967 304.667 350.745 302.722 352.301 301.167C353.967 299.5 355.967 298.667 358.301 298.667C360.634 298.667 362.579 299.5 364.134 301.167C365.801 302.722 366.634 304.667 366.634 307C366.634 309.333 365.801 311.333 364.134 313C362.579 314.556 360.634 315.333 358.301 315.333C355.967 315.333 353.967 314.556 352.301 313ZM368.967 313C367.412 311.333 366.634 309.333 366.634 307C366.634 304.667 367.412 302.722 368.967 301.167C370.634 299.5 372.634 298.667 374.967 298.667C377.301 298.667 379.245 299.5 380.801 301.167C382.467 302.722 383.301 304.667 383.301 307C383.301 309.333 382.467 311.333 380.801 313C379.245 314.556 377.301 315.333 374.967 315.333C372.634 315.333 370.634 314.556 368.967 313ZM368.967 296.333C367.412 294.667 366.634 292.667 366.634 290.333C366.634 288 367.412 286.056 368.967 284.5C370.634 282.833 372.634 282 374.967 282C377.301 282 379.245 282.833 380.801 284.5C382.467 286.056 383.301 288 383.301 290.333C383.301 292.667 382.467 294.667 380.801 296.333C379.245 297.889 377.301 298.667 374.967 298.667C372.634 298.667 370.634 297.889 368.967 296.333ZM352.301 296.333C350.745 294.667 349.967 292.667 349.967 290.333C349.967 288 350.745 286.056 352.301 284.5C353.967 282.833 355.967 282 358.301 282C360.634 282 362.579 282.833 364.134 284.5C365.801 286.056 366.634 288 366.634 290.333C366.634 292.667 365.801 294.667 364.134 296.333C362.579 297.889 360.634 298.667 358.301 298.667C355.967 298.667 353.967 297.889 352.301 296.333ZM352.301 279.667C350.745 278 349.967 276 349.967 273.667C349.967 271.333 350.745 269.389 352.301 267.833C353.967 266.167 355.967 265.333 358.301 265.333C360.634 265.333 362.579 266.167 364.134 267.833C365.801 269.389 366.634 271.333 366.634 273.667C366.634 276 365.801 278 364.134 279.667C362.579 281.222 360.634 282 358.301 282C355.967 282 353.967 281.222 352.301 279.667ZM285.634 279.667C284.079 278 283.301 276 283.301 273.667C283.301 271.333 284.079 269.389 285.634 267.833C287.301 266.167 289.301 265.333 291.634 265.333C293.967 265.333 295.912 266.167 297.467 267.833C299.134 269.389 299.967 271.333 299.967 273.667C299.967 276 299.134 278 297.467 279.667C295.912 281.222 293.967 282 291.634 282C289.301 282 287.301 281.222 285.634 279.667ZM302.301 279.667C300.745 278 299.967 276 299.967 273.667C299.967 271.333 300.745 269.389 302.301 267.833C303.967 266.167 305.967 265.333 308.301 265.333C310.634 265.333 312.579 266.167 314.134 267.833C315.801 269.389 316.634 271.333 316.634 273.667C316.634 276 315.801 278 314.134 279.667C312.579 281.222 310.634 282 308.301 282C305.967 282 303.967 281.222 302.301 279.667ZM302.301 296.333C300.745 294.667 299.967 292.667 299.967 290.333C299.967 288 300.745 286.056 302.301 284.5C303.967 282.833 305.967 282 308.301 282C310.634 282 312.579 282.833 314.134 284.5C315.801 286.056 316.634 288 316.634 290.333C316.634 292.667 315.801 294.667 314.134 296.333C312.579 297.889 310.634 298.667 308.301 298.667C305.967 298.667 303.967 297.889 302.301 296.333ZM285.634 296.333C284.079 294.667 283.301 292.667 283.301 290.333C283.301 288 284.079 286.056 285.634 284.5C287.301 282.833 289.301 282 291.634 282C293.967 282 295.912 282.833 297.467 284.5C299.134 286.056 299.967 288 299.967 290.333C299.967 292.667 299.134 294.667 297.467 296.333C295.912 297.889 293.967 298.667 291.634 298.667C289.301 298.667 287.301 297.889 285.634 296.333ZM285.634 313C284.079 311.333 283.301 309.333 283.301 307C283.301 304.667 284.079 302.722 285.634 301.167C287.301 299.5 289.301 298.667 291.634 298.667C293.967 298.667 295.912 299.5 297.467 301.167C299.134 302.722 299.967 304.667 299.967 307C299.967 309.333 299.134 311.333 297.467 313C295.912 314.556 293.967 315.333 291.634 315.333C289.301 315.333 287.301 314.556 285.634 313ZM302.301 313C300.745 311.333 299.967 309.333 299.967 307C299.967 304.667 300.745 302.722 302.301 301.167C303.967 299.5 305.967 298.667 308.301 298.667C310.634 298.667 312.579 299.5 314.134 301.167C315.801 302.722 316.634 304.667 316.634 307C316.634 309.333 315.801 311.333 314.134 313C312.579 314.556 310.634 315.333 308.301 315.333C305.967 315.333 303.967 314.556 302.301 313ZM302.301 329.667C300.745 328 299.967 326 299.967 323.667C299.967 321.333 300.745 319.389 302.301 317.833C303.967 316.167 305.967 315.333 308.301 315.333C310.634 315.333 312.579 316.167 314.134 317.833C315.801 319.389 316.634 321.333 316.634 323.667C316.634 326 315.801 328 314.134 329.667C312.579 331.222 310.634 332 308.301 332C305.967 332 303.967 331.222 302.301 329.667ZM285.634 329.667C284.079 328 283.301 326 283.301 323.667C283.301 321.333 284.079 319.389 285.634 317.833C287.301 316.167 289.301 315.333 291.634 315.333C293.967 315.333 295.912 316.167 297.467 317.833C299.134 319.389 299.967 321.333 299.967 323.667C299.967 326 299.134 328 297.467 329.667C295.912 331.222 293.967 332 291.634 332C289.301 332 287.301 331.222 285.634 329.667ZM318.967 279.667C317.412 278 316.634 276 316.634 273.667C316.634 271.333 317.412 269.389 318.967 267.833C320.634 266.167 322.634 265.333 324.967 265.333C327.301 265.333 329.245 266.167 330.801 267.833C332.467 269.389 333.301 271.333 333.301 273.667C333.301 276 332.467 278 330.801 279.667C329.245 281.222 327.301 282 324.967 282C322.634 282 320.634 281.222 318.967 279.667ZM335.634 279.667C334.079 278 333.301 276 333.301 273.667C333.301 271.333 334.079 269.389 335.634 267.833C337.301 266.167 339.301 265.333 341.634 265.333C343.967 265.333 345.912 266.167 347.467 267.833C349.134 269.389 349.967 271.333 349.967 273.667C349.967 276 349.134 278 347.467 279.667C345.912 281.222 343.967 282 341.634 282C339.301 282 337.301 281.222 335.634 279.667ZM368.967 279.667C367.412 278 366.634 276 366.634 273.667C366.634 271.333 367.412 269.389 368.967 267.833C370.634 266.167 372.634 265.333 374.967 265.333C377.301 265.333 379.245 266.167 380.801 267.833C382.467 269.389 383.301 271.333 383.301 273.667C383.301 276 382.467 278 380.801 279.667C379.245 281.222 377.301 282 374.967 282C372.634 282 370.634 281.222 368.967 279.667ZM302.301 246.333C300.745 244.667 299.967 242.667 299.967 240.333C299.967 238 300.745 236.056 302.301 234.5C303.967 232.833 305.967 232 308.301 232C310.634 232 312.579 232.833 314.134 234.5C315.801 236.056 316.634 238 316.634 240.333C316.634 242.667 315.801 244.667 314.134 246.333C312.579 247.889 310.634 248.667 308.301 248.667C305.967 248.667 303.967 247.889 302.301 246.333ZM285.634 246.333C284.079 244.667 283.301 242.667 283.301 240.333C283.301 238 284.079 236.056 285.634 234.5C287.301 232.833 289.301 232 291.634 232C293.967 232 295.912 232.833 297.467 234.5C299.134 236.056 299.967 238 299.967 240.333C299.967 242.667 299.134 244.667 297.467 246.333C295.912 247.889 293.967 248.667 291.634 248.667C289.301 248.667 287.301 247.889 285.634 246.333ZM285.634 229.667C284.079 228 283.301 226 283.301 223.667C283.301 221.333 284.079 219.389 285.634 217.833C287.301 216.167 289.301 215.333 291.634 215.333C293.967 215.333 295.912 216.167 297.467 217.833C299.134 219.389 299.967 221.333 299.967 223.667C299.967 226 299.134 228 297.467 229.667C295.912 231.222 293.967 232 291.634 232C289.301 232 287.301 231.222 285.634 229.667ZM302.301 229.667C300.745 228 299.967 226 299.967 223.667C299.967 221.333 300.745 219.389 302.301 217.833C303.967 216.167 305.967 215.333 308.301 215.333C310.634 215.333 312.579 216.167 314.134 217.833C315.801 219.389 316.634 221.333 316.634 223.667C316.634 226 315.801 228 314.134 229.667C312.579 231.222 310.634 232 308.301 232C305.967 232 303.967 231.222 302.301 229.667ZM285.634 263C284.079 261.333 283.301 259.333 283.301 257C283.301 254.667 284.079 252.722 285.634 251.167C287.301 249.5 289.301 248.667 291.634 248.667C293.967 248.667 295.912 249.5 297.467 251.167C299.134 252.722 299.967 254.667 299.967 257C299.967 259.333 299.134 261.333 297.467 263C295.912 264.556 293.967 265.333 291.634 265.333C289.301 265.333 287.301 264.556 285.634 263ZM352.301 263C350.745 261.333 349.967 259.333 349.967 257C349.967 254.667 350.745 252.722 352.301 251.167C353.967 249.5 355.967 248.667 358.301 248.667C360.634 248.667 362.579 249.5 364.134 251.167C365.801 252.722 366.634 254.667 366.634 257C366.634 259.333 365.801 261.333 364.134 263C362.579 264.556 360.634 265.333 358.301 265.333C355.967 265.333 353.967 264.556 352.301 263ZM335.634 263C334.079 261.333 333.301 259.333 333.301 257C333.301 254.667 334.079 252.722 335.634 251.167C337.301 249.5 339.301 248.667 341.634 248.667C343.967 248.667 345.912 249.5 347.467 251.167C349.134 252.722 349.967 254.667 349.967 257C349.967 259.333 349.134 261.333 347.467 263C345.912 264.556 343.967 265.333 341.634 265.333C339.301 265.333 337.301 264.556 335.634 263ZM318.967 263C317.412 261.333 316.634 259.333 316.634 257C316.634 254.667 317.412 252.722 318.967 251.167C320.634 249.5 322.634 248.667 324.967 248.667C327.301 248.667 329.245 249.5 330.801 251.167C332.467 252.722 333.301 254.667 333.301 257C333.301 259.333 332.467 261.333 330.801 263C329.245 264.556 327.301 265.333 324.967 265.333C322.634 265.333 320.634 264.556 318.967 263ZM302.301 263C300.745 261.333 299.967 259.333 299.967 257C299.967 254.667 300.745 252.722 302.301 251.167C303.967 249.5 305.967 248.667 308.301 248.667C310.634 248.667 312.579 249.5 314.134 251.167C315.801 252.722 316.634 254.667 316.634 257C316.634 259.333 315.801 261.333 314.134 263C312.579 264.556 310.634 265.333 308.301 265.333C305.967 265.333 303.967 264.556 302.301 263Z" fill="white"/>
</svg>
